<?xml version="1.0" encoding="utf-8"?>
<!-- Generator: Adobe Illustrator 27.5.0, SVG Export Plug-In . SVG Version: 6.00 Build 0)  -->
<svg version="1.1" id="Capa_1" xmlns="http://www.w3.org/2000/svg" xmlns:xlink="http://www.w3.org/1999/xlink" x="0px" y="0px"
	 viewBox="0 0 425.197 425.197" style="enable-background:new 0 0 425.197 425.197;" xml:space="preserve">
<rect x="0" y="0" style="fill:#2C4866;" width="425.197" height="425.197"/>
<g>
	<ellipse style="fill:#142A42;" cx="91.98" cy="344.65" rx="51.178" ry="16.266"/>
	<path style="fill:#142A42;" d="M382.488,344.65c0,8.983-22.913,16.266-51.178,16.266c-28.266,0-51.179-7.282-51.179-16.266
		s22.913-16.266,51.179-16.266C359.575,328.384,382.488,335.667,382.488,344.65z"/>
	<path style="fill:#142A42;" d="M274.751,386.333c0,9.656-28.719,17.483-64.145,17.483c-35.427,0-64.146-7.827-64.146-17.483
		c0-9.655,28.719-17.482,64.146-17.482C246.032,368.851,274.751,376.678,274.751,386.333z"/>
	<g>
		<g>
			<path style="fill:#41B4E0;" d="M279.678,33.981v-8.169c0-1.395-0.988-2.524-2.205-2.524h-37.451c-1.218,0-1.535,0.915-2.2,2.524
				l-3.191,8.005H120.646c-5.12,0-9.272,4.755-9.272,10.621v109.279c0,5.866,4.152,10.622,9.272,10.622h22.231h30.132h105.248
				c5.12,0,9.272-4.756,9.272-10.622V44.437C287.527,39.13,284.117,34.768,279.678,33.981z"/>
			<path style="fill:#13B0E0;" d="M279.678,33.943v-8.131c0-1.395-0.988-2.524-2.205-2.524h-20.498
				c-0.557,3.521-1.72,6.679-2.901,10.529L279.678,33.943z"/>
			<path style="fill:#00A4D4;" d="M277.473,23.287h-10.127c0.013,0.139,0.041,0.273,0.049,0.416
				c0.06,1.435-0.755,9.711-0.975,10.114l13.259,0.127v-8.131C279.678,24.417,278.69,23.287,277.473,23.287z"/>
			<path style="fill:#13B0E0;" d="M278.256,33.816h-24.183c-18.534,51.809-63.316,89.086-114.577,89.086
				c-9.653,0-19.06-1.362-28.123-3.852v34.665c0,5.866,4.152,10.622,9.272,10.622h22.231h30.132h105.248
				c5.12,0,9.272-4.756,9.272-10.622V44.437C287.527,38.571,283.376,33.816,278.256,33.816z"/>
			<path style="fill:#00A4D4;" d="M278.256,33.816h-11.837c-12.946,62.233-62.528,109.665-120.355,109.665
				c-12.006,0-23.65-2.079-34.691-5.874v16.109c0,5.866,4.152,10.622,9.272,10.622h22.231h30.132h105.248
				c5.12,0,9.272-4.756,9.272-10.622V44.437C287.527,38.571,283.376,33.816,278.256,33.816z"/>
			<g>
				<path style="fill:#65BAE1;" d="M305.508,46.251l1.626-7.4c0.274-1.264-0.484-2.287-1.702-2.287H267.98
					c-1.215,0-1.717,0.828-2.704,2.287l-4.779,7.251H146.512c-5.121,0-10.216,4.308-11.381,9.621l-21.721,98.994
					c-1.163,5.312,2.042,9.621,7.162,9.621H142.8h30.13h105.254c5.119,0,10.217-4.309,11.381-9.621l21.721-98.994
					C312.34,50.915,309.794,46.964,305.508,46.251z"/>
				<path style="fill:#56B7E1;" d="M305.174,46.213h0.344l1.616-7.363c0.274-1.264-0.484-2.287-1.702-2.287h-20.498
					c-1.254,3.189-3.048,6.05-4.994,9.538c-28.831,46.933-81.02,80.7-132.282,80.7c-9.651,0-18.792-1.233-27.356-3.487
					l-6.891,31.402c-1.163,5.312,2.042,9.621,7.162,9.621H142.8h30.13h105.254c5.119,0,10.217-4.309,11.381-9.621l21.721-98.994
					C312.366,50.791,309.654,46.773,305.174,46.213z"/>
				<path style="fill:#91C4E3;" d="M232.684,53.674h-79.205c-5.119,0-10.213,4.31-11.38,9.622l-8.854,40.359
					C160.396,75.572,196.404,56.498,232.684,53.674z"/>
				<path style="fill:#41B4E0;" d="M305.155,46.212l0.362,0.002l1.616-7.363c0.274-1.264-0.484-2.287-1.702-2.287h-10.128
					c-0.013,0.125-0.013,0.247-0.032,0.375c-0.226,1.301-2.684,8.798-2.986,9.163c-25.314,56.375-84.318,99.342-142.151,99.342
					c-12.007,0-23.231-1.882-33.523-5.319l-3.201,14.593c-1.163,5.312,2.042,9.621,7.162,9.621H142.8h30.13h105.254
					c5.119,0,10.217-4.309,11.381-9.621l21.721-98.994C312.366,50.785,309.65,46.764,305.155,46.212z"/>
			</g>
		</g>
		<g>
			<g>
				<g>
					<g>
						<path style="fill:#8AA3B6;" d="M134.016,342.996c0,3.886-18.706,7.039-41.78,7.039c-23.073,0-41.777-3.153-41.777-7.039
							c0-1.092,0-16.986,0-16.986h83.558C134.016,326.01,134.016,339.106,134.016,342.996z"/>
						<path style="fill:#809EB2;" d="M119.762,326.01c0,3.76,0,8.006,0,9.95c0,3.888-18.703,7.039-41.774,7.039
							c-10.55,0-20.176-0.662-27.529-1.748c0,0.918,0,1.554,0,1.745c0,3.886,18.704,7.039,41.777,7.039
							c23.074,0,41.78-3.153,41.78-7.039c0-3.89,0-16.986,0-16.986H119.762z"/>
						<path style="fill:#7094A9;" d="M127.246,326.01c0,4.163,0,10.896,0,13.501c0,3.887-18.704,7.043-41.779,7.043
							c-14.623,0-27.489-1.268-34.95-3.186c1.147,3.713,19.386,6.668,41.719,6.668c23.074,0,41.78-3.153,41.78-7.039
							c0-3.89,0-16.986,0-16.986H127.246z"/>
						<path style="fill:#A0B0C1;" d="M134.016,326.01c0,3.89-18.706,7.042-41.78,7.042c-23.073,0-41.777-3.152-41.777-7.042
							c0-3.89,18.704-7.042,41.777-7.042C115.31,318.968,134.016,322.12,134.016,326.01z"/>
						<path style="opacity:0.1;fill:#FFFFFF;" d="M109.306,324.339c0,1.967-11.36,3.558-25.373,3.558
							c-14.012,0-25.373-1.591-25.373-3.558c0-1.961,11.361-3.555,25.373-3.555C97.945,320.784,109.306,322.377,109.306,324.339z"/>
						<path style="opacity:0.2;fill:#FFFFFF;" d="M89.431,324.339c0,1.324-5.125,2.397-11.443,2.397
							c-6.324,0-11.447-1.073-11.447-2.397c0-1.321,5.123-2.393,11.447-2.393C84.306,321.946,89.431,323.018,89.431,324.339z"/>
						<path style="fill:#86A1B4;" d="M90.826,318.973c-0.73,0-1.461,0.003-2.186,0.01c18.823,0.169,33.749,2.558,33.749,5.479
							c0,3.034-16.059,5.491-35.87,5.491c-18.495,0-33.719-2.143-35.656-4.895c-0.138,0.228-0.213,0.464-0.213,0.7
							c0,3.747,17.985,6.783,40.176,6.783c22.188,0,40.176-3.036,40.176-6.783S113.014,318.973,90.826,318.973z"/>
					</g>
					<g>
						<path style="fill:#4C8FBE;" d="M131.189,321.818c0,3.625-17.441,6.566-38.954,6.566s-38.95-2.941-38.95-6.566
							c0-1.018,0-15.836,0-15.836h77.904C131.189,305.982,131.189,318.194,131.189,321.818z"/>
						<path style="fill:#2F8BBE;" d="M117.901,305.982c0,3.505,0,7.463,0,9.277c0,3.627-17.438,6.562-38.954,6.562
							c-9.83,0-18.809-0.615-25.662-1.627c0,0.854,0,1.45,0,1.625c0,3.625,17.438,6.566,38.95,6.566s38.954-2.941,38.954-6.566
							c0-3.624,0-15.836,0-15.836H117.901z"/>
						<path style="fill:#087EAE;" d="M124.878,305.982c0,3.881,0,10.161,0,12.589c0,3.624-17.439,6.562-38.957,6.562
							c-13.632,0-25.623-1.18-32.585-2.968c1.072,3.463,18.076,6.22,38.899,6.22c21.513,0,38.954-2.941,38.954-6.566
							c0-3.624,0-15.836,0-15.836H124.878z"/>
						<path style="fill:#A0B0C1;" d="M131.189,305.982c0,3.625-17.441,6.564-38.954,6.564s-38.95-2.939-38.95-6.564
							c0-3.624,17.438-6.564,38.95-6.564S131.189,302.358,131.189,305.982z"/>
						<path style="opacity:0.1;fill:#FFFFFF;" d="M108.151,304.425c0,1.833-10.592,3.318-23.657,3.318
							c-13.065,0-23.658-1.485-23.658-3.318c0-1.831,10.593-3.314,23.658-3.314C97.56,301.111,108.151,302.594,108.151,304.425z"/>
						<path style="opacity:0.2;fill:#FFFFFF;" d="M89.62,304.425c0,1.234-4.779,2.234-10.673,2.234c-5.891,0-10.671-1-10.671-2.234
							c0-1.233,4.78-2.232,10.671-2.232C84.841,302.193,89.62,303.191,89.62,304.425z"/>
						<path style="fill:#86A1B4;" d="M90.923,299.422c-0.687,0-1.363,0.003-2.039,0.01c17.552,0.156,31.467,2.383,31.467,5.109
							c0,2.826-14.975,5.117-33.444,5.117c-17.245,0-31.44-1.998-33.242-4.564c-0.132,0.214-0.199,0.431-0.199,0.653
							c0,3.492,16.769,6.327,37.458,6.327c20.685,0,37.455-2.835,37.455-6.327C128.378,302.254,111.607,299.422,90.923,299.422z"/>
					</g>
					<g>
						<path style="fill:#8AA3B6;" d="M134.016,314.029c0,3.89-18.706,7.04-41.78,7.04c-23.073,0-41.777-3.151-41.777-7.04
							c0-1.091,0-16.983,0-16.983h83.558C134.016,297.045,134.016,310.142,134.016,314.029z"/>
						<path style="fill:#809EB2;" d="M119.762,297.045c0,3.759,0,8.003,0,9.948c0,3.89-18.703,7.042-41.774,7.042
							c-10.55,0-20.176-0.662-27.529-1.747c0,0.913,0,1.553,0,1.741c0,3.89,18.704,7.04,41.777,7.04
							c23.074,0,41.78-3.151,41.78-7.04c0-3.887,0-16.983,0-16.983H119.762z"/>
						<path style="fill:#7094A9;" d="M127.246,297.045c0,4.163,0,10.895,0,13.502c0,3.887-18.704,7.039-41.779,7.039
							c-14.623,0-27.489-1.267-34.95-3.185c1.147,3.716,19.386,6.668,41.719,6.668c23.074,0,41.78-3.151,41.78-7.04
							c0-3.887,0-16.983,0-16.983H127.246z"/>
						<path style="fill:#A0B0C1;" d="M134.016,297.045c0,3.887-18.706,7.04-41.78,7.04c-23.073,0-41.777-3.153-41.777-7.04
							c0-3.89,18.704-7.04,41.777-7.04C115.31,290.005,134.016,293.156,134.016,297.045z"/>
						<path style="opacity:0.1;fill:#FFFFFF;" d="M109.306,295.375c0,1.964-11.36,3.558-25.373,3.558
							c-14.012,0-25.373-1.594-25.373-3.558c0-1.965,11.361-3.555,25.373-3.555C97.945,291.82,109.306,293.41,109.306,295.375z"/>
						<path style="opacity:0.2;fill:#FFFFFF;" d="M89.431,295.375c0,1.323-5.125,2.396-11.443,2.396
							c-6.324,0-11.447-1.072-11.447-2.396c0-1.322,5.123-2.395,11.447-2.395C84.306,292.98,89.431,294.053,89.431,295.375z"/>
						<path style="fill:#86A1B4;" d="M90.826,290.009c-0.73,0-1.461,0.004-2.186,0.01c18.823,0.171,33.749,2.558,33.749,5.479
							c0,3.033-16.059,5.489-35.87,5.489c-18.495,0-33.719-2.142-35.656-4.892c-0.138,0.229-0.213,0.463-0.213,0.702
							c0,3.745,17.985,6.784,40.176,6.784c22.188,0,40.176-3.04,40.176-6.784C131.002,293.047,113.014,290.009,90.826,290.009z"/>
					</g>
					<g>
						<path style="fill:#4C8FBE;" d="M131.189,292.853c0,3.625-17.441,6.565-38.954,6.565s-38.95-2.939-38.95-6.565
							c0-1.018,0-15.836,0-15.836h77.904C131.189,277.017,131.189,289.227,131.189,292.853z"/>
						<path style="fill:#2F8BBE;" d="M117.901,277.017c0,3.506,0,7.463,0,9.278c0,3.624-17.438,6.564-38.954,6.564
							c-9.83,0-18.809-0.616-25.662-1.627c0,0.851,0,1.45,0,1.622c0,3.625,17.438,6.565,38.95,6.565s38.954-2.939,38.954-6.565
							c0-3.626,0-15.836,0-15.836H117.901z"/>
						<path style="fill:#087EAE;" d="M124.878,277.017c0,3.884,0,10.162,0,12.589c0,3.625-17.439,6.565-38.957,6.565
							c-13.632,0-25.623-1.183-32.585-2.972c1.072,3.465,18.076,6.218,38.899,6.218c21.513,0,38.954-2.939,38.954-6.565
							c0-3.626,0-15.836,0-15.836H124.878z"/>
						<path style="fill:#A0B0C1;" d="M131.189,277.017c0,3.626-17.441,6.564-38.954,6.564s-38.95-2.938-38.95-6.564
							c0-3.624,17.438-6.564,38.95-6.564S131.189,273.393,131.189,277.017z"/>
						<path style="opacity:0.1;fill:#FFFFFF;" d="M108.151,275.461c0,1.832-10.592,3.317-23.657,3.317
							c-13.065,0-23.658-1.485-23.658-3.317c0-1.832,10.593-3.317,23.658-3.317C97.56,272.144,108.151,273.628,108.151,275.461z"/>
						<path style="opacity:0.2;fill:#FFFFFF;" d="M89.62,275.461c0,1.236-4.779,2.234-10.673,2.234
							c-5.891,0-10.671-0.999-10.671-2.234c0-1.234,4.78-2.232,10.671-2.232C84.841,273.228,89.62,274.226,89.62,275.461z"/>
						<path style="fill:#86A1B4;" d="M90.923,270.457c-0.687,0-1.363,0.004-2.039,0.01c17.552,0.156,31.467,2.385,31.467,5.106
							c0,2.83-14.975,5.123-33.444,5.123c-17.245,0-31.44-2-33.242-4.569c-0.132,0.215-0.199,0.436-0.199,0.655
							c0,3.496,16.769,6.325,37.458,6.325c20.685,0,37.455-2.829,37.455-6.325C128.378,273.288,111.607,270.457,90.923,270.457z"/>
					</g>
					<g>
						<path style="fill:#8AA3B6;" d="M134.016,286.28c0,3.889-18.706,7.04-41.78,7.04c-23.073,0-41.777-3.152-41.777-7.04
							c0-1.092,0-16.982,0-16.982h83.558C134.016,269.298,134.016,282.391,134.016,286.28z"/>
						<path style="fill:#809EB2;" d="M119.762,269.298c0,3.757,0,8.003,0,9.947c0,3.887-18.703,7.04-41.774,7.04
							c-10.55,0-20.176-0.661-27.529-1.748c0,0.915,0,1.555,0,1.743c0,3.889,18.704,7.04,41.777,7.04
							c23.074,0,41.78-3.152,41.78-7.04c0-3.889,0-16.982,0-16.982H119.762z"/>
						<path style="fill:#7094A9;" d="M127.246,269.298c0,4.162,0,10.894,0,13.498c0,3.891-18.704,7.041-41.779,7.041
							c-14.623,0-27.489-1.266-34.95-3.186c1.147,3.717,19.386,6.67,41.719,6.67c23.074,0,41.78-3.152,41.78-7.04
							c0-3.889,0-16.982,0-16.982H127.246z"/>
						<path style="fill:#A0B0C1;" d="M134.016,269.298c0,3.888-18.706,7.038-41.78,7.038c-23.073,0-41.777-3.149-41.777-7.038
							c0-3.89,18.704-7.043,41.777-7.043C115.31,262.255,134.016,265.409,134.016,269.298z"/>
						<path style="opacity:0.1;fill:#FFFFFF;" d="M109.306,267.626c0,1.964-11.36,3.556-25.373,3.556
							c-14.012,0-25.373-1.592-25.373-3.556c0-1.963,11.361-3.557,25.373-3.557C97.945,264.07,109.306,265.664,109.306,267.626z"/>
						<path style="opacity:0.2;fill:#FFFFFF;" d="M89.431,267.626c0,1.323-5.125,2.396-11.443,2.396
							c-6.324,0-11.447-1.072-11.447-2.396c0-1.322,5.123-2.395,11.447-2.395C84.306,265.232,89.431,266.304,89.431,267.626z"/>
						<path style="fill:#86A1B4;" d="M90.826,262.259c-0.73,0-1.461,0.003-2.186,0.01c18.823,0.168,33.749,2.556,33.749,5.479
							c0,3.033-16.059,5.491-35.87,5.491c-18.495,0-33.719-2.144-35.656-4.896c-0.138,0.229-0.213,0.465-0.213,0.702
							c0,3.746,17.985,6.782,40.176,6.782c22.188,0,40.176-3.036,40.176-6.782C131.002,265.295,113.014,262.259,90.826,262.259z"/>
					</g>
					<g>
						<path style="fill:#4C8FBE;" d="M131.189,266.892c0,3.626-17.441,6.564-38.954,6.564s-38.95-2.939-38.95-6.564
							c0-1.02,0-15.836,0-15.836h77.904C131.189,251.056,131.189,263.263,131.189,266.892z"/>
						<path style="fill:#2F8BBE;" d="M117.901,251.056c0,3.507,0,7.463,0,9.275c0,3.625-17.438,6.566-38.954,6.566
							c-9.83,0-18.809-0.617-25.662-1.63c0,0.853,0,1.447,0,1.625c0,3.626,17.438,6.564,38.95,6.564s38.954-2.939,38.954-6.564
							c0-3.629,0-15.836,0-15.836H117.901z"/>
						<path style="fill:#087EAE;" d="M124.878,251.056c0,3.881,0,10.158,0,12.586c0,3.624-17.439,6.564-38.957,6.564
							c-13.632,0-25.623-1.18-32.585-2.969c1.072,3.464,18.076,6.219,38.899,6.219c21.513,0,38.954-2.939,38.954-6.564
							c0-3.629,0-15.836,0-15.836H124.878z"/>
						<path style="fill:#A0B0C1;" d="M131.189,251.056c0,3.626-17.441,6.564-38.954,6.564s-38.95-2.939-38.95-6.564
							c0-3.625,17.438-6.564,38.95-6.564S131.189,247.43,131.189,251.056z"/>
						<path style="opacity:0.1;fill:#FFFFFF;" d="M108.151,249.496c0,1.833-10.592,3.32-23.657,3.32
							c-13.065,0-23.658-1.487-23.658-3.32c0-1.829,10.593-3.313,23.658-3.313C97.56,246.183,108.151,247.667,108.151,249.496z"/>
						<path style="opacity:0.2;fill:#FFFFFF;" d="M89.62,249.496c0,1.237-4.779,2.234-10.673,2.234
							c-5.891,0-10.671-0.998-10.671-2.234c0-1.233,4.78-2.23,10.671-2.23C84.841,247.266,89.62,248.263,89.62,249.496z"/>
						<path style="fill:#86A1B4;" d="M90.923,244.495c-0.687,0-1.363,0.003-2.039,0.012c17.552,0.156,31.467,2.383,31.467,5.106
							c0,2.826-14.975,5.12-33.444,5.12c-17.245,0-31.44-2.001-33.242-4.565c-0.132,0.213-0.199,0.433-0.199,0.652
							c0,3.495,16.769,6.327,37.458,6.327c20.685,0,37.455-2.833,37.455-6.327C128.378,247.325,111.607,244.495,90.923,244.495z"/>
					</g>
					<g>
						<path style="fill:#8AA3B6;" d="M134.016,260.317c0,3.888-18.706,7.041-41.78,7.041c-23.073,0-41.777-3.153-41.777-7.041
							c0-1.09,0-16.982,0-16.982h83.558C134.016,243.335,134.016,256.429,134.016,260.317z"/>
						<path style="fill:#809EB2;" d="M119.762,243.335c0,3.759,0,8.002,0,9.947c0,3.89-18.703,7.04-41.774,7.04
							c-10.55,0-20.176-0.662-27.529-1.745c0,0.915,0,1.552,0,1.741c0,3.888,18.704,7.041,41.777,7.041
							c23.074,0,41.78-3.153,41.78-7.041c0-3.889,0-16.982,0-16.982H119.762z"/>
						<path style="fill:#7094A9;" d="M127.246,243.335c0,4.162,0,10.895,0,13.501c0,3.885-18.704,7.04-41.779,7.04
							c-14.623,0-27.489-1.27-34.95-3.186c1.147,3.713,19.386,6.668,41.719,6.668c23.074,0,41.78-3.153,41.78-7.041
							c0-3.889,0-16.982,0-16.982H127.246z"/>
						<path style="fill:#A0B0C1;" d="M134.016,243.335c0,3.887-18.706,7.038-41.78,7.038c-23.073,0-41.777-3.151-41.777-7.038
							c0-3.891,18.704-7.04,41.777-7.04C115.31,236.295,134.016,239.444,134.016,243.335z"/>
						<path style="opacity:0.1;fill:#FFFFFF;" d="M109.306,241.665c0,1.963-11.36,3.554-25.373,3.554
							c-14.012,0-25.373-1.591-25.373-3.554c0-1.966,11.361-3.559,25.373-3.559C97.945,238.107,109.306,239.699,109.306,241.665z"/>
						<path style="opacity:0.2;fill:#FFFFFF;" d="M89.431,241.665c0,1.321-5.125,2.395-11.443,2.395
							c-6.324,0-11.447-1.073-11.447-2.395c0-1.325,5.123-2.396,11.447-2.396C84.306,239.269,89.431,240.341,89.431,241.665z"/>
						<path style="fill:#86A1B4;" d="M90.826,236.298c-0.73,0-1.461,0.003-2.186,0.008c18.823,0.168,33.749,2.558,33.749,5.478
							c0,3.034-16.059,5.491-35.87,5.491c-18.495,0-33.719-2.143-35.656-4.894c-0.138,0.229-0.213,0.465-0.213,0.699
							c0,3.747,17.985,6.787,40.176,6.787c22.188,0,40.176-3.04,40.176-6.787C131.002,239.335,113.014,236.298,90.826,236.298z"/>
					</g>
				</g>
				<g>
					<g>
						<path style="fill:#8AA3B6;" d="M372.44,342.996c0,3.886-18.706,7.039-41.78,7.039c-23.073,0-41.777-3.153-41.777-7.039
							c0-1.092,0-16.986,0-16.986h83.558C372.44,326.01,372.44,339.106,372.44,342.996z"/>
						<path style="fill:#809EB2;" d="M358.186,326.01c0,3.76,0,8.006,0,9.95c0,3.888-18.703,7.039-41.777,7.039
							c-10.547,0-20.175-0.662-27.526-1.748c0,0.918,0,1.554,0,1.745c0,3.886,18.704,7.039,41.777,7.039
							c23.074,0,41.78-3.153,41.78-7.039c0-3.89,0-16.986,0-16.986H358.186z"/>
						<path style="fill:#7094A9;" d="M365.67,326.01c0,4.163,0,10.896,0,13.501c0,3.887-18.705,7.043-41.777,7.043
							c-14.625,0-27.488-1.268-34.951-3.186c1.146,3.713,19.386,6.668,41.719,6.668c23.074,0,41.78-3.153,41.78-7.039
							c0-3.89,0-16.986,0-16.986H365.67z"/>
						<path style="fill:#A0B0C1;" d="M372.44,326.01c0,3.89-18.706,7.042-41.78,7.042c-23.073,0-41.777-3.152-41.777-7.042
							c0-3.89,18.704-7.042,41.777-7.042C353.734,318.968,372.44,322.12,372.44,326.01z"/>
						<path style="opacity:0.1;fill:#FFFFFF;" d="M347.728,324.339c0,1.967-11.358,3.558-25.369,3.558
							c-14.017,0-25.375-1.591-25.375-3.558c0-1.961,11.358-3.555,25.375-3.555C336.369,320.784,347.728,322.377,347.728,324.339z"
							/>
						<path style="opacity:0.2;fill:#FFFFFF;" d="M327.855,324.339c0,1.324-5.124,2.397-11.446,2.397
							c-6.321,0-11.445-1.073-11.445-2.397c0-1.321,5.124-2.393,11.445-2.393C322.732,321.946,327.855,323.018,327.855,324.339z"/>
						<path style="fill:#86A1B4;" d="M329.253,318.973c-0.737,0-1.464,0.003-2.188,0.01c18.823,0.169,33.75,2.558,33.75,5.479
							c0,3.034-16.059,5.491-35.87,5.491c-18.496,0-33.719-2.143-35.655-4.895c-0.141,0.228-0.213,0.464-0.213,0.7
							c0,3.747,17.986,6.783,40.177,6.783c22.186,0,40.172-3.036,40.172-6.783S351.439,318.973,329.253,318.973z"/>
					</g>
					<g>
						<path style="fill:#4C8FBE;" d="M369.613,321.818c0,3.625-17.44,6.566-38.953,6.566c-21.513,0-38.951-2.941-38.951-6.566
							c0-1.018,0-15.836,0-15.836h77.904C369.613,305.982,369.613,318.194,369.613,321.818z"/>
						<path style="fill:#2F8BBE;" d="M356.323,305.982c0,3.505,0,7.463,0,9.277c0,3.627-17.437,6.562-38.951,6.562
							c-9.833,0-18.81-0.615-25.663-1.627c0,0.854,0,1.45,0,1.625c0,3.625,17.438,6.566,38.951,6.566
							c21.514,0,38.953-2.941,38.953-6.566c0-3.624,0-15.836,0-15.836H356.323z"/>
						<path style="fill:#087EAE;" d="M363.303,305.982c0,3.881,0,10.161,0,12.589c0,3.624-17.44,6.562-38.954,6.562
							c-13.636,0-25.627-1.18-32.587-2.968c1.072,3.463,18.076,6.22,38.898,6.22c21.514,0,38.953-2.941,38.953-6.566
							c0-3.624,0-15.836,0-15.836H363.303z"/>
						<path style="fill:#A0B0C1;" d="M369.613,305.982c0,3.625-17.44,6.564-38.953,6.564c-21.513,0-38.951-2.939-38.951-6.564
							c0-3.624,17.438-6.564,38.951-6.564C352.174,299.418,369.613,302.358,369.613,305.982z"/>
						<path style="opacity:0.1;fill:#FFFFFF;" d="M346.575,304.425c0,1.833-10.592,3.318-23.657,3.318
							c-13.065,0-23.657-1.485-23.657-3.318c0-1.831,10.593-3.314,23.657-3.314C335.983,301.111,346.575,302.594,346.575,304.425z"
							/>
						<path style="opacity:0.2;fill:#FFFFFF;" d="M328.046,304.425c0,1.234-4.78,2.234-10.674,2.234c-5.892,0-10.671-1-10.671-2.234
							c0-1.233,4.779-2.232,10.671-2.232C323.266,302.193,328.046,303.191,328.046,304.425z"/>
						<path style="fill:#86A1B4;" d="M329.349,299.422c-0.686,0-1.364,0.003-2.04,0.01c17.551,0.156,31.466,2.383,31.466,5.109
							c0,2.826-14.97,5.117-33.441,5.117c-17.247,0-31.439-1.998-33.245-4.564c-0.131,0.214-0.201,0.431-0.201,0.653
							c0,3.492,16.773,6.327,37.462,6.327c20.685,0,37.454-2.835,37.454-6.327C366.803,302.254,350.033,299.422,329.349,299.422z"/>
					</g>
					<g>
						<path style="fill:#8AA3B6;" d="M372.44,314.029c0,3.89-18.706,7.04-41.78,7.04c-23.073,0-41.777-3.151-41.777-7.04
							c0-1.091,0-16.983,0-16.983h83.558C372.44,297.045,372.44,310.142,372.44,314.029z"/>
						<path style="fill:#809EB2;" d="M358.186,297.045c0,3.759,0,8.003,0,9.948c0,3.89-18.703,7.042-41.777,7.042
							c-10.547,0-20.175-0.662-27.526-1.747c0,0.913,0,1.553,0,1.741c0,3.89,18.704,7.04,41.777,7.04
							c23.074,0,41.78-3.151,41.78-7.04c0-3.887,0-16.983,0-16.983H358.186z"/>
						<path style="fill:#7094A9;" d="M365.67,297.045c0,4.163,0,10.895,0,13.502c0,3.887-18.705,7.039-41.777,7.039
							c-14.625,0-27.488-1.267-34.951-3.185c1.146,3.716,19.386,6.668,41.719,6.668c23.074,0,41.78-3.151,41.78-7.04
							c0-3.887,0-16.983,0-16.983H365.67z"/>
						<path style="fill:#A0B0C1;" d="M372.44,297.045c0,3.887-18.706,7.04-41.78,7.04c-23.073,0-41.777-3.153-41.777-7.04
							c0-3.89,18.704-7.04,41.777-7.04C353.734,290.005,372.44,293.156,372.44,297.045z"/>
						<path style="opacity:0.1;fill:#FFFFFF;" d="M347.728,295.375c0,1.964-11.358,3.558-25.369,3.558
							c-14.017,0-25.375-1.594-25.375-3.558c0-1.965,11.358-3.555,25.375-3.555C336.369,291.82,347.728,293.41,347.728,295.375z"/>
						<path style="opacity:0.2;fill:#FFFFFF;" d="M327.855,295.375c0,1.323-5.124,2.396-11.446,2.396
							c-6.321,0-11.445-1.072-11.445-2.396c0-1.322,5.124-2.395,11.445-2.395C322.732,292.98,327.855,294.053,327.855,295.375z"/>
						<path style="fill:#86A1B4;" d="M329.253,290.009c-0.737,0-1.464,0.004-2.188,0.01c18.823,0.171,33.75,2.558,33.75,5.479
							c0,3.033-16.059,5.489-35.87,5.489c-18.496,0-33.719-2.142-35.655-4.892c-0.141,0.229-0.213,0.463-0.213,0.702
							c0,3.745,17.986,6.784,40.177,6.784c22.186,0,40.172-3.04,40.172-6.784C369.425,293.047,351.439,290.009,329.253,290.009z"/>
					</g>
					<g>
						<path style="fill:#4C8FBE;" d="M369.613,292.853c0,3.625-17.44,6.565-38.953,6.565c-21.513,0-38.951-2.939-38.951-6.565
							c0-1.018,0-15.836,0-15.836h77.904C369.613,277.017,369.613,289.227,369.613,292.853z"/>
						<path style="fill:#2F8BBE;" d="M356.323,277.017c0,3.506,0,7.463,0,9.278c0,3.624-17.437,6.564-38.951,6.564
							c-9.833,0-18.81-0.616-25.663-1.627c0,0.851,0,1.45,0,1.622c0,3.625,17.438,6.565,38.951,6.565
							c21.514,0,38.953-2.939,38.953-6.565c0-3.626,0-15.836,0-15.836H356.323z"/>
						<path style="fill:#087EAE;" d="M363.303,277.017c0,3.884,0,10.162,0,12.589c0,3.625-17.44,6.565-38.954,6.565
							c-13.636,0-25.627-1.183-32.587-2.972c1.072,3.465,18.076,6.218,38.898,6.218c21.514,0,38.953-2.939,38.953-6.565
							c0-3.626,0-15.836,0-15.836H363.303z"/>
						<path style="fill:#A0B0C1;" d="M369.613,277.017c0,3.626-17.44,6.564-38.953,6.564c-21.513,0-38.951-2.938-38.951-6.564
							c0-3.624,17.438-6.564,38.951-6.564C352.174,270.453,369.613,273.393,369.613,277.017z"/>
						<path style="opacity:0.1;fill:#FFFFFF;" d="M346.575,275.461c0,1.832-10.592,3.317-23.657,3.317
							c-13.065,0-23.657-1.485-23.657-3.317c0-1.832,10.593-3.317,23.657-3.317C335.983,272.144,346.575,273.628,346.575,275.461z"
							/>
						<path style="opacity:0.2;fill:#FFFFFF;" d="M328.046,275.461c0,1.236-4.78,2.234-10.674,2.234
							c-5.892,0-10.671-0.999-10.671-2.234c0-1.234,4.779-2.232,10.671-2.232C323.266,273.228,328.046,274.226,328.046,275.461z"/>
						<path style="fill:#86A1B4;" d="M329.349,270.457c-0.686,0-1.364,0.004-2.04,0.01c17.551,0.156,31.466,2.385,31.466,5.106
							c0,2.83-14.97,5.123-33.441,5.123c-17.247,0-31.439-2-33.245-4.569c-0.131,0.215-0.201,0.436-0.201,0.655
							c0,3.496,16.773,6.325,37.462,6.325c20.685,0,37.454-2.829,37.454-6.325C366.803,273.288,350.033,270.457,329.349,270.457z"/>
					</g>
					<g>
						<path style="fill:#8AA3B6;" d="M372.44,286.28c0,3.889-18.706,7.04-41.78,7.04c-23.073,0-41.777-3.152-41.777-7.04
							c0-1.092,0-16.982,0-16.982h83.558C372.44,269.298,372.44,282.391,372.44,286.28z"/>
						<path style="fill:#809EB2;" d="M358.186,269.298c0,3.757,0,8.003,0,9.947c0,3.887-18.703,7.04-41.777,7.04
							c-10.547,0-20.175-0.661-27.526-1.748c0,0.915,0,1.555,0,1.743c0,3.889,18.704,7.04,41.777,7.04
							c23.074,0,41.78-3.152,41.78-7.04c0-3.889,0-16.982,0-16.982H358.186z"/>
						<path style="fill:#7094A9;" d="M365.67,269.298c0,4.162,0,10.894,0,13.498c0,3.891-18.705,7.041-41.777,7.041
							c-14.625,0-27.488-1.266-34.951-3.186c1.146,3.717,19.386,6.67,41.719,6.67c23.074,0,41.78-3.152,41.78-7.04
							c0-3.889,0-16.982,0-16.982H365.67z"/>
						<path style="fill:#A0B0C1;" d="M372.44,269.298c0,3.888-18.706,7.038-41.78,7.038c-23.073,0-41.777-3.149-41.777-7.038
							c0-3.89,18.704-7.043,41.777-7.043C353.734,262.255,372.44,265.409,372.44,269.298z"/>
						<path style="opacity:0.1;fill:#FFFFFF;" d="M347.728,267.626c0,1.964-11.358,3.556-25.369,3.556
							c-14.017,0-25.375-1.592-25.375-3.556c0-1.963,11.358-3.557,25.375-3.557C336.369,264.07,347.728,265.664,347.728,267.626z"/>
						<path style="opacity:0.2;fill:#FFFFFF;" d="M327.855,267.626c0,1.323-5.124,2.396-11.446,2.396
							c-6.321,0-11.445-1.072-11.445-2.396c0-1.322,5.124-2.395,11.445-2.395C322.732,265.232,327.855,266.304,327.855,267.626z"/>
						<path style="fill:#86A1B4;" d="M329.253,262.259c-0.737,0-1.464,0.003-2.188,0.01c18.823,0.168,33.75,2.556,33.75,5.479
							c0,3.033-16.059,5.491-35.87,5.491c-18.496,0-33.719-2.144-35.655-4.896c-0.141,0.229-0.213,0.465-0.213,0.702
							c0,3.746,17.986,6.782,40.177,6.782c22.186,0,40.172-3.036,40.172-6.782C369.425,265.295,351.439,262.259,329.253,262.259z"/>
					</g>
					<g>
						<path style="fill:#4C8FBE;" d="M369.613,266.892c0,3.626-17.44,6.564-38.953,6.564c-21.513,0-38.951-2.939-38.951-6.564
							c0-1.02,0-15.836,0-15.836h77.904C369.613,251.056,369.613,263.263,369.613,266.892z"/>
						<path style="fill:#2F8BBE;" d="M356.323,251.056c0,3.507,0,7.463,0,9.275c0,3.625-17.437,6.566-38.951,6.566
							c-9.833,0-18.81-0.617-25.663-1.63c0,0.853,0,1.447,0,1.625c0,3.626,17.438,6.564,38.951,6.564
							c21.514,0,38.953-2.939,38.953-6.564c0-3.629,0-15.836,0-15.836H356.323z"/>
						<path style="fill:#087EAE;" d="M363.303,251.056c0,3.881,0,10.158,0,12.586c0,3.624-17.44,6.564-38.954,6.564
							c-13.636,0-25.627-1.18-32.587-2.969c1.072,3.464,18.076,6.219,38.898,6.219c21.514,0,38.953-2.939,38.953-6.564
							c0-3.629,0-15.836,0-15.836H363.303z"/>
						<path style="fill:#A0B0C1;" d="M369.613,251.056c0,3.626-17.44,6.564-38.953,6.564c-21.513,0-38.951-2.939-38.951-6.564
							c0-3.625,17.438-6.564,38.951-6.564C352.174,244.491,369.613,247.43,369.613,251.056z"/>
						<path style="opacity:0.1;fill:#FFFFFF;" d="M346.575,249.496c0,1.833-10.592,3.32-23.657,3.32
							c-13.065,0-23.657-1.487-23.657-3.32c0-1.829,10.593-3.313,23.657-3.313C335.983,246.183,346.575,247.667,346.575,249.496z"/>
						<path style="opacity:0.2;fill:#FFFFFF;" d="M328.046,249.496c0,1.237-4.78,2.234-10.674,2.234
							c-5.892,0-10.671-0.998-10.671-2.234c0-1.233,4.779-2.23,10.671-2.23C323.266,247.266,328.046,248.263,328.046,249.496z"/>
						<path style="fill:#86A1B4;" d="M329.349,244.495c-0.686,0-1.364,0.003-2.04,0.012c17.551,0.156,31.466,2.383,31.466,5.106
							c0,2.826-14.97,5.12-33.441,5.12c-17.247,0-31.439-2.001-33.245-4.565c-0.131,0.213-0.201,0.433-0.201,0.652
							c0,3.495,16.773,6.327,37.462,6.327c20.685,0,37.454-2.833,37.454-6.327C366.803,247.325,350.033,244.495,329.349,244.495z"/>
					</g>
					<g>
						<path style="fill:#8AA3B6;" d="M372.44,260.317c0,3.888-18.706,7.041-41.78,7.041c-23.073,0-41.777-3.153-41.777-7.041
							c0-1.09,0-16.982,0-16.982h83.558C372.44,243.335,372.44,256.429,372.44,260.317z"/>
						<path style="fill:#809EB2;" d="M358.186,243.335c0,3.759,0,8.002,0,9.947c0,3.89-18.703,7.04-41.777,7.04
							c-10.547,0-20.175-0.662-27.526-1.745c0,0.915,0,1.552,0,1.741c0,3.888,18.704,7.041,41.777,7.041
							c23.074,0,41.78-3.153,41.78-7.041c0-3.889,0-16.982,0-16.982H358.186z"/>
						<path style="fill:#7094A9;" d="M365.67,243.335c0,4.162,0,10.895,0,13.501c0,3.885-18.705,7.04-41.777,7.04
							c-14.625,0-27.488-1.27-34.951-3.186c1.146,3.713,19.386,6.668,41.719,6.668c23.074,0,41.78-3.153,41.78-7.041
							c0-3.889,0-16.982,0-16.982H365.67z"/>
						<path style="fill:#A0B0C1;" d="M372.44,243.335c0,3.887-18.706,7.038-41.78,7.038c-23.073,0-41.777-3.151-41.777-7.038
							c0-3.891,18.704-7.04,41.777-7.04C353.734,236.295,372.44,239.444,372.44,243.335z"/>
						<path style="opacity:0.1;fill:#FFFFFF;" d="M347.728,241.665c0,1.963-11.358,3.554-25.369,3.554
							c-14.017,0-25.375-1.591-25.375-3.554c0-1.966,11.358-3.559,25.375-3.559C336.369,238.107,347.728,239.699,347.728,241.665z"
							/>
						<path style="opacity:0.2;fill:#FFFFFF;" d="M327.855,241.665c0,1.321-5.124,2.395-11.446,2.395
							c-6.321,0-11.445-1.073-11.445-2.395c0-1.325,5.124-2.396,11.445-2.396C322.732,239.269,327.855,240.341,327.855,241.665z"/>
						<path style="fill:#86A1B4;" d="M329.253,236.298c-0.737,0-1.464,0.003-2.188,0.008c18.823,0.168,33.75,2.558,33.75,5.478
							c0,3.034-16.059,5.491-35.87,5.491c-18.496,0-33.719-2.143-35.655-4.894c-0.141,0.229-0.213,0.465-0.213,0.699
							c0,3.747,17.986,6.787,40.177,6.787c22.186,0,40.172-3.04,40.172-6.787C369.425,239.335,351.439,236.298,329.253,236.298z"/>
					</g>
				</g>
			</g>
			<g>
				<g>
					<path style="fill:#8AA3B6;" d="M266.853,380.292c0,5.157-24.806,9.337-55.405,9.337c-30.597,0-55.401-4.181-55.401-9.337
						c0-1.447,0-22.524,0-22.524h110.807C266.853,357.768,266.853,375.136,266.853,380.292z"/>
					<path style="fill:#809EB2;" d="M247.95,357.768c0,4.99,0,10.617,0,13.196c0,5.157-24.805,9.334-55.399,9.334
						c-13.986,0-26.757-0.876-36.505-2.315c0,1.213,0,2.061,0,2.309c0,5.157,24.805,9.337,55.401,9.337
						c30.6,0,55.405-4.181,55.405-9.337c0-5.156,0-22.524,0-22.524H247.95z"/>
					<path style="fill:#7094A9;" d="M257.875,357.768c0,5.523,0,14.45,0,17.905c0,5.154-24.805,9.336-55.402,9.336
						c-19.396,0-36.455-1.68-46.352-4.223c1.523,4.925,25.709,8.843,55.326,8.843c30.6,0,55.405-4.181,55.405-9.337
						c0-5.156,0-22.524,0-22.524H257.875z"/>
					<path style="fill:#A0B0C1;" d="M266.853,357.768c0,5.158-24.806,9.339-55.405,9.339c-30.597,0-55.401-4.181-55.401-9.339
						c0-5.156,24.805-9.336,55.401-9.336C242.047,348.432,266.853,352.612,266.853,357.768z"/>
					<path style="opacity:0.1;fill:#FFFFFF;" d="M234.084,355.556c0,2.602-15.066,4.717-33.645,4.717
						c-18.587,0-33.651-2.115-33.651-4.717c0-2.605,15.064-4.718,33.651-4.718C219.018,350.838,234.084,352.952,234.084,355.556z"/>
					<path style="opacity:0.2;fill:#FFFFFF;" d="M207.728,355.556c0,1.754-6.796,3.175-15.177,3.175
						c-8.387,0-15.18-1.421-15.18-3.175c0-1.756,6.793-3.177,15.18-3.177C200.932,352.379,207.728,353.8,207.728,355.556z"/>
					<path style="fill:#86A1B4;" d="M209.578,348.439c-0.97,0-1.936,0.004-2.898,0.012c24.961,0.224,44.757,3.393,44.757,7.267
						c0,4.019-21.296,7.28-47.569,7.28c-24.528,0-44.717-2.842-47.286-6.492c-0.183,0.308-0.278,0.618-0.278,0.93
						c0,4.97,23.85,8.997,53.275,8.997c29.427,0,53.277-4.027,53.277-8.997C262.855,352.467,239.005,348.439,209.578,348.439z"/>
				</g>
				<g>
					<path style="fill:#4C8FBE;" d="M263.104,352.213c0,4.805-23.128,8.703-51.657,8.703c-28.527,0-51.656-3.898-51.656-8.703
						c0-1.354,0-21.002,0-21.002h103.313C263.104,331.211,263.104,347.404,263.104,352.213z"/>
					<path style="fill:#2F8BBE;" d="M245.482,331.211c0,4.647,0,9.896,0,12.3c0,4.807-23.127,8.703-51.654,8.703
						c-13.04,0-24.942-0.815-34.036-2.157c0,1.131,0,1.921,0,2.156c0,4.805,23.129,8.703,51.656,8.703
						c28.529,0,51.657-3.898,51.657-8.703c0-4.809,0-21.002,0-21.002H245.482z"/>
					<path style="fill:#087EAE;" d="M254.734,331.211c0,5.149,0,13.472,0,16.693c0,4.806-23.127,8.703-51.657,8.703
						c-18.083,0-33.984-1.564-43.216-3.938c1.422,4.593,23.974,8.246,51.586,8.246c28.529,0,51.657-3.898,51.657-8.703
						c0-4.809,0-21.002,0-21.002H254.734z"/>
					<path style="fill:#A0B0C1;" d="M263.104,331.211c0,4.808-23.128,8.705-51.657,8.705c-28.527,0-51.656-3.897-51.656-8.705
						c0-4.809,23.129-8.708,51.656-8.708C239.977,322.503,263.104,326.402,263.104,331.211z"/>
					<path style="opacity:0.1;fill:#FFFFFF;" d="M232.554,329.147c0,2.426-14.047,4.397-31.372,4.397
						c-17.328,0-31.373-1.971-31.373-4.397c0-2.43,14.045-4.398,31.373-4.398C218.507,324.75,232.554,326.717,232.554,329.147z"/>
					<path style="opacity:0.2;fill:#FFFFFF;" d="M207.98,329.147c0,1.636-6.338,2.96-14.153,2.96c-7.814,0-14.15-1.325-14.15-2.96
						c0-1.638,6.336-2.963,14.15-2.963C201.643,326.184,207.98,327.51,207.98,329.147z"/>
					<path style="fill:#86A1B4;" d="M209.707,322.513c-0.909,0-1.809,0.002-2.703,0.012c23.272,0.207,41.729,3.159,41.729,6.773
						c0,3.747-19.855,6.787-44.35,6.787c-22.873,0-41.695-2.648-44.088-6.052c-0.174,0.286-0.264,0.574-0.264,0.865
						c0,4.633,22.239,8.39,49.676,8.39c27.432,0,49.67-3.757,49.67-8.39C259.377,326.268,237.139,322.513,209.707,322.513z"/>
				</g>
				<g>
					<path style="fill:#8AA3B6;" d="M266.853,341.88c0,5.159-24.806,9.338-55.405,9.338c-30.597,0-55.401-4.179-55.401-9.338
						c0-1.448,0-22.522,0-22.522h110.807C266.853,319.359,266.853,336.726,266.853,341.88z"/>
					<path style="fill:#809EB2;" d="M247.95,319.359c0,4.984,0,10.614,0,13.194c0,5.153-24.805,9.335-55.399,9.335
						c-13.986,0-26.757-0.878-36.505-2.316c0,1.211,0,2.06,0,2.308c0,5.159,24.805,9.338,55.401,9.338
						c30.6,0,55.405-4.179,55.405-9.338c0-5.155,0-22.522,0-22.522H247.95z"/>
					<path style="fill:#7094A9;" d="M257.875,319.359c0,5.522,0,14.448,0,17.903c0,5.153-24.805,9.336-55.402,9.336
						c-19.396,0-36.455-1.681-46.352-4.225c1.523,4.929,25.709,8.845,55.326,8.845c30.6,0,55.405-4.179,55.405-9.338
						c0-5.155,0-22.522,0-22.522H257.875z"/>
					<path style="fill:#A0B0C1;" d="M266.853,319.359c0,5.154-24.806,9.335-55.405,9.335c-30.597,0-55.401-4.181-55.401-9.335
						c0-5.158,24.805-9.337,55.401-9.337C242.047,310.022,266.853,314.201,266.853,319.359z"/>
					<path style="opacity:0.1;fill:#FFFFFF;" d="M234.084,317.145c0,2.604-15.066,4.716-33.645,4.716
						c-18.587,0-33.651-2.112-33.651-4.716s15.064-4.716,33.651-4.716C219.018,312.428,234.084,314.54,234.084,317.145z"/>
					<path style="opacity:0.2;fill:#FFFFFF;" d="M207.728,317.145c0,1.754-6.796,3.175-15.177,3.175
						c-8.387,0-15.18-1.422-15.18-3.175c0-1.754,6.793-3.178,15.18-3.178C200.932,313.967,207.728,315.391,207.728,317.145z"/>
					<path style="fill:#86A1B4;" d="M209.578,310.027c-0.97,0-1.936,0.007-2.898,0.013c24.961,0.223,44.757,3.392,44.757,7.268
						c0,4.018-21.296,7.279-47.569,7.279c-24.528,0-44.717-2.841-47.286-6.492c-0.183,0.306-0.278,0.616-0.278,0.932
						c0,4.965,23.85,8.995,53.275,8.995c29.427,0,53.277-4.03,53.277-8.995C262.855,314.056,239.005,310.027,209.578,310.027z"/>
				</g>
				<g>
					<path style="fill:#4C8FBE;" d="M263.104,313.801c0,4.805-23.128,8.703-51.657,8.703c-28.527,0-51.656-3.897-51.656-8.703
						c0-1.352,0-21.002,0-21.002h103.313C263.104,292.799,263.104,308.991,263.104,313.801z"/>
					<path style="fill:#2F8BBE;" d="M245.482,292.799c0,4.651,0,9.898,0,12.301c0,4.807-23.127,8.705-51.654,8.705
						c-13.04,0-24.942-0.817-34.036-2.158c0,1.129,0,1.919,0,2.153c0,4.805,23.129,8.703,51.656,8.703
						c28.529,0,51.657-3.897,51.657-8.703c0-4.81,0-21.002,0-21.002H245.482z"/>
					<path style="fill:#087EAE;" d="M254.734,292.799c0,5.149,0,13.473,0,16.692c0,4.809-23.127,8.706-51.657,8.706
						c-18.083,0-33.984-1.569-43.216-3.939c1.422,4.593,23.974,8.244,51.586,8.244c28.529,0,51.657-3.897,51.657-8.703
						c0-4.81,0-21.002,0-21.002H254.734z"/>
					<path style="fill:#A0B0C1;" d="M263.104,292.799c0,4.809-23.128,8.705-51.657,8.705c-28.527,0-51.656-3.896-51.656-8.705
						c0-4.806,23.129-8.706,51.656-8.706C239.977,284.093,263.104,287.993,263.104,292.799z"/>
					<path style="opacity:0.1;fill:#FFFFFF;" d="M232.554,290.733c0,2.431-14.047,4.399-31.372,4.399
						c-17.328,0-31.373-1.969-31.373-4.399c0-2.428,14.045-4.397,31.373-4.397C218.507,286.336,232.554,288.305,232.554,290.733z"/>
					<path style="opacity:0.2;fill:#FFFFFF;" d="M207.98,290.733c0,1.638-6.338,2.964-14.153,2.964
						c-7.814,0-14.15-1.326-14.15-2.964c0-1.635,6.336-2.96,14.15-2.96C201.643,287.773,207.98,289.098,207.98,290.733z"/>
					<path style="fill:#86A1B4;" d="M209.707,284.099c-0.909,0-1.809,0.004-2.703,0.015c23.272,0.204,41.729,3.158,41.729,6.773
						c0,3.747-19.855,6.787-44.35,6.787c-22.873,0-41.695-2.649-44.088-6.052c-0.174,0.284-0.264,0.575-0.264,0.866
						c0,4.632,22.239,8.39,49.676,8.39c27.432,0,49.67-3.758,49.67-8.39C259.377,287.854,237.139,284.099,209.707,284.099z"/>
				</g>
				<g>
					<path style="fill:#8AA3B6;" d="M266.853,305.084c0,5.156-24.806,9.336-55.405,9.336c-30.597,0-55.401-4.181-55.401-9.336
						c0-1.45,0-22.527,0-22.527h110.807C266.853,282.557,266.853,299.926,266.853,305.084z"/>
					<path style="fill:#809EB2;" d="M247.95,282.557c0,4.988,0,10.616,0,13.195c0,5.156-24.805,9.336-55.399,9.336
						c-13.986,0-26.757-0.875-36.505-2.315c0,1.213,0,2.06,0,2.31c0,5.156,24.805,9.336,55.401,9.336
						c30.6,0,55.405-4.181,55.405-9.336c0-5.158,0-22.527,0-22.527H247.95z"/>
					<path style="fill:#7094A9;" d="M257.875,282.557c0,5.525,0,14.452,0,17.906c0,5.157-24.805,9.337-55.402,9.337
						c-19.396,0-36.455-1.681-46.352-4.225c1.523,4.929,25.709,8.845,55.326,8.845c30.6,0,55.405-4.181,55.405-9.336
						c0-5.158,0-22.527,0-22.527H257.875z"/>
					<path style="fill:#A0B0C1;" d="M266.853,282.557c0,5.158-24.806,9.337-55.405,9.337c-30.597,0-55.401-4.18-55.401-9.337
						c0-5.157,24.805-9.334,55.401-9.334C242.047,273.223,266.853,277.4,266.853,282.557z"/>
					<path style="opacity:0.1;fill:#FFFFFF;" d="M234.084,280.346c0,2.604-15.066,4.715-33.645,4.715
						c-18.587,0-33.651-2.111-33.651-4.715c0-2.607,15.064-4.718,33.651-4.718C219.018,275.628,234.084,277.739,234.084,280.346z"/>
					<path style="opacity:0.2;fill:#FFFFFF;" d="M207.728,280.346c0,1.753-6.796,3.175-15.177,3.175
						c-8.387,0-15.18-1.422-15.18-3.175c0-1.755,6.793-3.176,15.18-3.176C200.932,277.17,207.728,278.591,207.728,280.346z"/>
					<path style="fill:#86A1B4;" d="M209.578,273.228c-0.97,0-1.936,0.005-2.898,0.015c24.961,0.222,44.757,3.391,44.757,7.265
						c0,4.023-21.296,7.279-47.569,7.279c-24.528,0-44.717-2.838-47.286-6.489c-0.183,0.305-0.278,0.616-0.278,0.928
						c0,4.968,23.85,8.996,53.275,8.996c29.427,0,53.277-4.028,53.277-8.996C262.855,277.257,239.005,273.228,209.578,273.228z"/>
				</g>
				<g>
					<path style="fill:#4C8FBE;" d="M263.104,279.371c0,4.806-23.128,8.706-51.657,8.706c-28.527,0-51.656-3.9-51.656-8.706
						c0-1.352,0-21.003,0-21.003h103.313C263.104,258.368,263.104,274.559,263.104,279.371z"/>
					<path style="fill:#2F8BBE;" d="M245.482,258.368c0,4.651,0,9.897,0,12.304c0,4.809-23.127,8.703-51.654,8.703
						c-13.04,0-24.942-0.815-34.036-2.159c0,1.132,0,1.922,0,2.156c0,4.806,23.129,8.706,51.656,8.706
						c28.529,0,51.657-3.9,51.657-8.706c0-4.812,0-21.003,0-21.003H245.482z"/>
					<path style="fill:#087EAE;" d="M254.734,258.368c0,5.147,0,13.474,0,16.696c0,4.806-23.127,8.703-51.657,8.703
						c-18.083,0-33.984-1.567-43.216-3.939c1.422,4.595,23.974,8.249,51.586,8.249c28.529,0,51.657-3.9,51.657-8.706
						c0-4.812,0-21.003,0-21.003H254.734z"/>
					<path style="fill:#A0B0C1;" d="M263.104,258.368c0,4.808-23.128,8.707-51.657,8.707c-28.527,0-51.656-3.899-51.656-8.707
						c0-4.806,23.129-8.703,51.656-8.703C239.977,249.665,263.104,253.562,263.104,258.368z"/>
					<path style="opacity:0.1;fill:#FFFFFF;" d="M232.554,256.303c0,2.432-14.047,4.399-31.372,4.399
						c-17.328,0-31.373-1.967-31.373-4.399c0-2.427,14.045-4.396,31.373-4.396C218.507,251.907,232.554,253.876,232.554,256.303z"/>
					<path style="opacity:0.2;fill:#FFFFFF;" d="M207.98,256.303c0,1.641-6.338,2.963-14.153,2.963
						c-7.814,0-14.15-1.322-14.15-2.963c0-1.635,6.336-2.959,14.15-2.959C201.643,253.344,207.98,254.668,207.98,256.303z"/>
					<path style="fill:#86A1B4;" d="M209.707,249.669c-0.909,0-1.809,0.006-2.703,0.014c23.272,0.207,41.729,3.161,41.729,6.772
						c0,3.75-19.855,6.789-44.35,6.789c-22.873,0-41.695-2.65-44.088-6.051c-0.174,0.283-0.264,0.574-0.264,0.866
						c0,4.632,22.239,8.386,49.676,8.386c27.432,0,49.67-3.754,49.67-8.386C259.377,253.425,237.139,249.669,209.707,249.669z"/>
				</g>
				<g>
					<path style="fill:#8AA3B6;" d="M266.853,270.652c0,5.156-24.806,9.339-55.405,9.339c-30.597,0-55.401-4.183-55.401-9.339
						c0-1.447,0-22.521,0-22.521h110.807C266.853,248.131,266.853,265.494,266.853,270.652z"/>
					<path style="fill:#809EB2;" d="M247.95,248.131c0,4.985,0,10.613,0,13.193c0,5.155-24.805,9.336-55.399,9.336
						c-13.986,0-26.757-0.875-36.505-2.315c0,1.212,0,2.058,0,2.308c0,5.156,24.805,9.339,55.401,9.339
						c30.6,0,55.405-4.183,55.405-9.339c0-5.158,0-22.521,0-22.521H247.95z"/>
					<path style="fill:#7094A9;" d="M257.875,248.131c0,5.521,0,14.449,0,17.904c0,5.153-24.805,9.334-55.402,9.334
						c-19.396,0-36.455-1.681-46.352-4.223c1.523,4.927,25.709,8.844,55.326,8.844c30.6,0,55.405-4.183,55.405-9.339
						c0-5.158,0-22.521,0-22.521H257.875z"/>
					<path style="fill:#A0B0C1;" d="M266.853,248.131c0,5.155-24.806,9.336-55.405,9.336c-30.597,0-55.401-4.181-55.401-9.336
						c0-5.157,24.805-9.337,55.401-9.337C242.047,238.794,266.853,242.974,266.853,248.131z"/>
					<path style="opacity:0.1;fill:#FFFFFF;" d="M234.084,245.915c0,2.605-15.066,4.716-33.645,4.716
						c-18.587,0-33.651-2.111-33.651-4.716c0-2.604,15.064-4.715,33.651-4.715C219.018,241.2,234.084,243.311,234.084,245.915z"/>
					<path style="opacity:0.2;fill:#FFFFFF;" d="M207.728,245.915c0,1.756-6.796,3.177-15.177,3.177
						c-8.387,0-15.18-1.42-15.18-3.177c0-1.755,6.793-3.177,15.18-3.177C200.932,242.738,207.728,244.16,207.728,245.915z"/>
					<path style="fill:#86A1B4;" d="M209.578,238.799c-0.97,0-1.936,0.005-2.898,0.012c24.961,0.225,44.757,3.393,44.757,7.266
						c0,4.021-21.296,7.282-47.569,7.282c-24.528,0-44.717-2.845-47.286-6.492c-0.183,0.305-0.278,0.616-0.278,0.928
						c0,4.968,23.85,8.996,53.275,8.996c29.427,0,53.277-4.028,53.277-8.996C262.855,242.825,239.005,238.799,209.578,238.799z"/>
				</g>
			</g>
			<g>
				<g>
					<g>
						<polygon style="fill:#FFFFFF;" points="91.57,226.757 89.887,226.757 89.887,204.515 90.728,204.515 201.773,204.423 
							201.773,164.338 203.456,164.338 203.456,206.106 202.615,206.106 91.57,206.199 						"/>
					</g>
					<g>
						<polygon style="fill:#FFFFFF;" points="330.061,226.757 328.378,226.757 328.378,206.199 219.439,206.106 219.439,164.338 
							221.123,164.338 221.123,204.423 330.061,204.515 						"/>
					</g>
				</g>
				<g>
					<rect x="210.607" y="164.338" style="fill:#FFFFFF;" width="1.683" height="62.419"/>
				</g>
				<g>
					<path style="fill:#FFFFFF;" d="M92.762,227.69c0-1.134-0.923-2.056-2.062-2.056c-1.141,0-2.062,0.921-2.062,2.056
						c0,1.136,0.921,2.055,2.062,2.055C91.839,229.746,92.762,228.827,92.762,227.69z"/>
				</g>
				<g>
					<path style="fill:#FFFFFF;" d="M213.51,227.69c0-1.134-0.921-2.056-2.06-2.056c-1.142,0-2.063,0.921-2.063,2.056
						c0,1.136,0.921,2.055,2.063,2.055C212.589,229.746,213.51,228.827,213.51,227.69z"/>
				</g>
				<g>
					<path style="fill:#FFFFFF;" d="M331.311,227.69c0-1.134-0.923-2.056-2.063-2.056c-1.14,0-2.061,0.921-2.061,2.056
						c0,1.136,0.921,2.055,2.061,2.055C330.388,229.746,331.311,228.827,331.311,227.69z"/>
				</g>
			</g>
		</g>
	</g>
</g>
</svg>
