<?xml version="1.0" encoding="utf-8"?>
<!-- Generator: Adobe Illustrator 27.5.0, SVG Export Plug-In . SVG Version: 6.00 Build 0)  -->
<svg version="1.1" xmlns="http://www.w3.org/2000/svg" xmlns:xlink="http://www.w3.org/1999/xlink" x="0px" y="0px"
	 viewBox="0 0 500 500" style="enable-background:new 0 0 500 500;" xml:space="preserve">
<g id="BACKGROUND">
	<g>
		<rect style="fill:#FFFFFF;" width="500" height="500"/>
	</g>
</g>
<g id="OBJECTS">
	<g>
		<path style="fill:#D1D3D4;" d="M267.416,325.25c0,2.669-2.163,4.833-4.832,4.833c-2.67,0-4.834-2.164-4.834-4.833
			s2.164-4.833,4.834-4.833C265.253,320.417,267.416,322.581,267.416,325.25z"/>
		<path style="fill:#D1D3D4;" d="M146.749,303.25c0,2.669-2.163,4.833-4.832,4.833c-2.67,0-4.834-2.164-4.834-4.833
			s2.164-4.833,4.834-4.833C144.586,298.417,146.749,300.581,146.749,303.25z"/>
		<path style="fill:#D1D3D4;" d="M140.415,156.25c0,2.669-2.163,4.833-4.832,4.833c-2.67,0-4.834-2.164-4.834-4.833
			s2.164-4.833,4.834-4.833C138.252,151.417,140.415,153.581,140.415,156.25z"/>
		<path style="fill:#D1D3D4;" d="M246.415,185.25c0,2.669-2.163,4.833-4.832,4.833c-2.67,0-4.834-2.164-4.834-4.833
			s2.164-4.833,4.834-4.833C244.252,180.417,246.415,182.581,246.415,185.25z"/>
		<path style="fill:#D1D3D4;" d="M386.832,282.083c0,2.669-2.163,4.833-4.832,4.833c-2.67,0-4.834-2.164-4.834-4.833
			c0-2.669,2.164-4.833,4.834-4.833C384.669,277.25,386.832,279.414,386.832,282.083z"/>
		<path style="fill:#D1D3D4;" d="M377.082,149.583c0,2.669-2.163,4.833-4.832,4.833c-2.67,0-4.834-2.164-4.834-4.833
			c0-2.669,2.164-4.833,4.834-4.833C374.919,144.75,377.082,146.914,377.082,149.583z"/>
		<line style="fill:none;stroke:#D1D3D4;stroke-width:2;stroke-miterlimit:10;" x1="242" y1="77.416" x2="242" y2="245"/>
		<polyline style="fill:none;stroke:#D1D3D4;stroke-width:2;stroke-miterlimit:10;" points="223.333,95.084 223.333,156 
			108.333,156 		"/>
		<polyline style="fill:none;stroke:#D1D3D4;stroke-width:2;stroke-miterlimit:10;" points="278.667,92.75 278.667,149.667 
			391.667,149.667 		"/>
		<polyline style="fill:none;stroke:#D1D3D4;stroke-width:2;stroke-miterlimit:10;" points="200,92.916 200,304 110,304 		"/>
		<polyline style="fill:none;stroke:#D1D3D4;stroke-width:2;stroke-miterlimit:10;" points="303.5,98.416 303.5,281.5 388.5,281.5 
					"/>
		<line style="fill:none;stroke:#D1D3D4;stroke-width:2;stroke-miterlimit:10;" x1="262.5" y1="88.916" x2="262.5" y2="386.199"/>
	</g>
	<g>
		<polygon style="opacity:0.2;fill:#231F20;" points="343.25,108 165.5,102.5 173.25,47.5 335.25,42.833 		"/>
		<rect x="165.5" y="42.25" style="fill:#FFFFFF;" width="170" height="60.5"/>
		<g>
			<g>
				
					<text transform="matrix(1 0 0 1 182.7197 73.7798)" style="fill:#303D4E; font-family:'Montserrat-Bold'; font-size:28.3793px;">Project</text>
				
					<text transform="matrix(1 0 0 1 183.4868 92.3833)" style="fill:#29AAE3; font-family:'Montserrat-Bold'; font-size:17.4385px;">Management</text>
			</g>
		</g>
	</g>
	<g>
		<g>
			
				<ellipse transform="matrix(0.2117 -0.9773 0.9773 0.2117 -110.8781 243.1912)" style="opacity:0.1;fill:#F7941E;" cx="95.315" cy="190.329" rx="80.983" ry="80.983"/>
			
				<ellipse transform="matrix(0.1707 -0.9853 0.9853 0.1707 -108.4889 251.7623)" style="opacity:0.3;fill:#F7941E;" cx="95.315" cy="190.329" rx="62.477" ry="62.477"/>
		</g>
		<g>
			<g>
				
					<ellipse transform="matrix(0.9612 -0.2757 0.2757 0.9612 -48.7401 33.9139)" style="fill:#F7941E;" cx="96.264" cy="190.329" rx="53.461" ry="53.461"/>
				<g>
					<path style="fill:#303D4E;" d="M123.586,216.037l8.142-14.1l-6.018-4.954c0.305-1.686,0.473-3.418,0.473-5.19
						c0-2-0.202-3.953-0.589-5.838l5.924-4.878l-8.139-14.1l-7.408,2.775c-2.765-2.347-5.974-4.18-9.485-5.36l-1.277-7.664H88.926
						l-1.302,7.814c-3.491,1.237-6.67,3.125-9.398,5.518l-7.261-2.72l-8.141,14.099l6.05,4.981
						c-0.327,1.742-0.506,3.536-0.506,5.373c0,1.936,0.194,3.828,0.558,5.657l-5.892,4.851l8.14,14.1l7.239-2.712
						c2.811,2.424,6.092,4.313,9.691,5.517l1.241,7.443l16.281,0l1.265-7.594c3.576-1.261,6.828-3.204,9.603-5.675L123.586,216.037z
						"/>
					<g>
						<g>
							<rect x="83.429" y="172.964" style="fill:#D1D3D4;" width="27.308" height="35.086"/>
							<rect x="80.891" y="170.316" style="fill:#FFFFFF;" width="27.308" height="35.086"/>
							<rect x="82.297" y="173.295" style="fill:#E6E7E8;" width="24.328" height="0.662"/>
							<rect x="82.297" y="177.35" style="fill:#E6E7E8;" width="24.328" height="0.662"/>
							<rect x="82.297" y="181.405" style="fill:#E6E7E8;" width="24.328" height="0.663"/>
							<rect x="82.297" y="185.46" style="fill:#E6E7E8;" width="24.328" height="0.662"/>
							<rect x="82.297" y="189.514" style="fill:#E6E7E8;" width="24.328" height="0.662"/>
							<rect x="82.297" y="193.569" style="fill:#E6E7E8;" width="24.328" height="0.662"/>
							<rect x="82.297" y="197.624" style="fill:#E6E7E8;" width="24.328" height="0.662"/>
							<rect x="82.297" y="201.678" style="fill:#E6E7E8;" width="24.328" height="0.661"/>
						</g>
						<g>
							
								<rect x="99.117" y="182.009" transform="matrix(0.4231 -0.9061 0.9061 0.4231 -107.5571 197.438)" style="fill:#D8394C;" width="4.323" height="2.358"/>
							
								<rect x="88.56" y="190.515" transform="matrix(0.4233 -0.906 0.906 0.4233 -117.5583 198.7101)" style="fill:#F7941E;" width="17.487" height="2.359"/>
							
								<rect x="100.125" y="182.684" transform="matrix(0.4231 -0.9061 0.9061 0.4231 -108.3501 197.5415)" style="fill:#303D4E;" width="1.676" height="2.359"/>
							<polygon style="fill:#F7941E;" points="92.895,201.128 92.537,199.11 94.673,200.109 							"/>
						</g>
					</g>
					<path style="fill:#29AAE3;" d="M131.476,201.993c0.154-0.844,0.237-1.714,0.237-2.602c0-1.003-0.102-1.981-0.294-2.926
						l2.969-2.446l-4.081-7.069l-3.713,1.392c-1.386-1.177-2.996-2.097-4.756-2.688l-0.639-3.842h-8.162l-0.653,3.918
						c-1.75,0.619-3.344,1.566-4.712,2.766l-3.64-1.364l-4.08,7.069l3.032,2.497c-0.164,0.874-0.254,1.773-0.254,2.694
						c0,0.971,0.097,1.919,0.28,2.837l-2.955,2.432l4.081,7.068l3.629-1.359c1.409,1.215,3.054,2.163,4.858,2.766l0.623,3.731
						l8.161,0.001l0.635-3.808c1.793-0.632,3.422-1.606,4.814-2.846l3.555,1.333l4.081-7.069L131.476,201.993z M117.215,206.846
						c-4.15,0-7.514-3.364-7.514-7.514s3.364-7.515,7.514-7.515c4.15,0,7.514,3.365,7.514,7.515S121.365,206.846,117.215,206.846z"
						/>
				</g>
			</g>
			<path style="opacity:0.2;fill:#FFFFFF;" d="M96.264,136.868c-29.526,0-53.461,23.936-53.461,53.461
				c0,13.394,4.937,25.627,13.075,35.008l75.394-75.394C121.891,141.805,109.658,136.868,96.264,136.868z"/>
		</g>
	</g>
	<g>
		<g>
			
				<ellipse transform="matrix(0.0985 -0.9951 0.9951 0.0985 175.082 574.8821)" style="opacity:0.1;fill:#F7941E;" cx="404.85" cy="190.804" rx="80.983" ry="80.983"/>
			<path style="opacity:0.3;fill:#F7941E;" d="M467.327,190.804c0,34.506-27.972,62.478-62.477,62.478s-62.478-27.971-62.478-62.478
				c0-34.503,27.973-62.477,62.478-62.477S467.327,156.3,467.327,190.804z"/>
		</g>
		<g>
			<g>
				<path style="fill:#F7941E;" d="M459.261,190.329c0,29.527-23.935,53.461-53.462,53.461c-29.524,0-53.461-23.934-53.461-53.461
					c0-29.525,23.937-53.461,53.461-53.461C435.326,136.868,459.261,160.804,459.261,190.329z"/>
				<g>
					<path style="fill:#FFFFFF;" d="M439.65,207.545c0,9.124-7.398,16.522-16.522,16.522h-34.494
						c-9.124,0-16.522-7.398-16.522-16.522V173.05c0-9.125,7.398-16.521,16.522-16.521h34.494c9.124,0,16.522,7.397,16.522,16.521
						V207.545z"/>
					<g>
						<g>
							<path style="fill:#29AAE3;" d="M403.932,169.878c-0.023,0-0.05,0.001-0.074,0.001v-2.25c0-1.572-1.275-2.847-2.847-2.847
								h-17.985c-1.571,0-2.847,1.274-2.847,2.847v17.985c0,1.572,1.275,2.847,2.847,2.847h2.251c0.04-3.648,3.01-6.594,6.667-6.594
								c3.658,0,6.627,2.945,6.667,6.594h2.4c1.571,0,2.847-1.274,2.847-2.847v-2.4c0.024,0,0.051,0.001,0.074,0.001
								c3.684,0,6.67-2.986,6.67-6.669C410.602,172.864,407.615,169.878,403.932,169.878z"/>
							
								<text transform="matrix(1 0 0 1 389.6162 177.9004)" style="fill:#FFFFFF; font-family:'Montserrat-Bold'; font-size:10.9769px;">1</text>
						</g>
						<g>
							<path style="fill:#17AD9B;" d="M428.735,164.558h-17.984c-1.571,0-2.847,1.275-2.847,2.848v2.4
								c3.647,0.039,6.594,3.009,6.594,6.666c0,3.658-2.946,6.627-6.594,6.668v2.25c0,1.573,1.275,2.847,2.847,2.847h2.401
								c0.081,3.613,3.033,6.519,6.666,6.519c3.633,0,6.585-2.906,6.665-6.519h2.252c1.572,0,2.848-1.274,2.848-2.847v-17.984
								C431.583,165.833,430.308,164.558,428.735,164.558z"/>
							
								<text transform="matrix(1 0 0 1 416.4678 178.6504)" style="fill:#FFFFFF; font-family:'Montserrat-Bold'; font-size:10.9769px;">2</text>
						</g>
						<g>
							<path style="fill:#303D4E;" d="M403.857,197.456v-2.251c0-1.572-1.275-2.847-2.847-2.847h-2.402
								c-0.08-3.614-3.032-6.52-6.665-6.52c-3.633,0-6.585,2.906-6.665,6.52h-2.253c-1.571,0-2.847,1.274-2.847,2.847v17.983
								c0,1.573,1.275,2.848,2.847,2.848h17.985c1.571,0,2.847-1.275,2.847-2.848v-2.399c-3.647-0.04-6.594-3.009-6.594-6.667
								C397.264,200.465,400.21,197.495,403.857,197.456z"/>
							
								<text transform="matrix(1 0 0 1 389.6162 208.6992)" style="fill:#FFFFFF; font-family:'Montserrat-Bold'; font-size:10.9769px;">3</text>
						</g>
						<g>
							<path style="fill:#F24656;" d="M428.735,192.134h-2.25c-0.04,3.647-3.009,6.594-6.667,6.594s-6.627-2.946-6.667-6.594h-2.4
								c-1.571,0-2.847,1.274-2.847,2.846v2.4c-0.024,0-0.051-0.003-0.075-0.003c-3.684,0-6.669,2.987-6.669,6.67
								c0,3.682,2.985,6.669,6.669,6.669c0.024,0,0.051-0.002,0.075-0.002v2.25c0,1.572,1.275,2.847,2.847,2.847h17.984
								c1.572,0,2.848-1.275,2.848-2.847V194.98C431.583,193.408,430.308,192.134,428.735,192.134z"/>
							
								<text transform="matrix(1 0 0 1 416.3174 209.4483)" style="fill:#FFFFFF; font-family:'Montserrat-Bold'; font-size:10.9769px;">4</text>
						</g>
					</g>
				</g>
			</g>
			<path style="opacity:0.2;fill:#FFFFFF;" d="M405.799,136.868c-29.524,0-53.461,23.936-53.461,53.461
				c0,15.327,6.459,29.136,16.792,38.883l75.553-75.552C434.935,143.327,421.126,136.868,405.799,136.868z"/>
		</g>
	</g>
	<g>
		<g>
			<circle style="opacity:0.1;fill:#17AD9B;" cx="404.85" cy="329.359" r="80.983"/>
			<path style="opacity:0.3;fill:#17AD9B;" d="M467.327,329.359c0,34.506-27.972,62.477-62.477,62.477s-62.478-27.971-62.478-62.477
				c0-34.504,27.973-62.478,62.478-62.478S467.327,294.855,467.327,329.359z"/>
		</g>
		<g>
			<g>
				<path style="fill:#17AD9B;" d="M458.786,329.2c0,29.527-23.935,53.462-53.461,53.462c-29.525,0-53.462-23.935-53.462-53.462
					c0-29.525,23.936-53.46,53.462-53.46C434.852,275.74,458.786,299.675,458.786,329.2z"/>
				<g>
					<g>
						<path style="fill:#303D4E;" d="M441.853,339.113c1.222-4.327,1.701-8.94,1.292-13.685
							c-1.822-21.062-20.371-36.658-41.434-34.837l3.298,38.135L441.853,339.113z"/>
						<path style="fill:#F7941E;" d="M401.711,290.592c-21.061,1.821-36.66,20.367-34.838,41.431
							c0.81,9.369,4.938,17.652,11.117,23.806l27.019-27.102L401.711,290.592z"/>
						<path style="fill:#29AAE3;" d="M441.853,339.113l-36.844-10.387l17.966,33.807
							C432.157,357.647,439.019,349.162,441.853,339.113z"/>
						<path style="fill:#FFFFFF;" d="M377.99,355.828c7.712,7.682,18.622,12.043,30.317,11.033
							c5.298-0.459,10.249-1.979,14.667-4.328l-17.966-33.807L377.99,355.828z"/>
					</g>
					<path style="fill:#17AD9B;" d="M417.881,327.727c0.604,6.979-4.565,13.124-11.544,13.729
						c-6.979,0.603-13.127-4.565-13.73-11.544c-0.603-6.98,4.564-13.125,11.544-13.73
						C411.131,315.58,417.276,320.747,417.881,327.727z"/>
				</g>
			</g>
			<path style="opacity:0.2;fill:#FFFFFF;" d="M405.325,275.74c-29.525,0-53.462,23.935-53.462,53.46
				c0,15.085,6.258,28.701,16.307,38.42l75.576-75.574C434.025,281.997,420.41,275.74,405.325,275.74z"/>
		</g>
	</g>
	<g>
		<g>
			<g>
				<circle style="opacity:0.1;fill:#17AD9B;" cx="250.004" cy="237.78" r="80.983"/>
				
					<ellipse transform="matrix(0.2298 -0.9732 0.9732 0.2298 -38.8538 426.4656)" style="opacity:0.3;fill:#17AD9B;" cx="250.004" cy="237.78" rx="62.477" ry="62.477"/>
			</g>
			<g>
				<g>
					<circle style="fill:#17AD9B;" cx="249.688" cy="237.78" r="53.461"/>
					<g>
						<rect x="225.015" y="204.134" style="fill:#F7941E;" width="49.664" height="66.66"/>
						<rect x="229.239" y="212.429" style="fill:#FFFFFF;" width="40.879" height="52.522"/>
						<g>
							<path style="fill:#303D4E;" d="M235.97,216.998c0,1.32-1.07,2.39-2.391,2.39l0,0c-1.319,0-2.39-1.07-2.39-2.39v-8.167
								c0-1.321,1.071-2.39,2.39-2.39l0,0c1.321,0,2.391,1.069,2.391,2.39V216.998z"/>
							<path style="fill:#303D4E;" d="M244.087,216.998c0,1.32-1.07,2.39-2.39,2.39l0,0c-1.32,0-2.391-1.07-2.391-2.39v-8.167
								c0-1.321,1.071-2.39,2.391-2.39l0,0c1.32,0,2.39,1.069,2.39,2.39V216.998z"/>
							<path style="fill:#303D4E;" d="M252.203,216.998c0,1.32-1.07,2.39-2.39,2.39l0,0c-1.32,0-2.39-1.07-2.39-2.39v-8.167
								c0-1.321,1.07-2.39,2.39-2.39l0,0c1.319,0,2.39,1.069,2.39,2.39V216.998z"/>
							<path style="fill:#303D4E;" d="M260.32,216.998c0,1.32-1.07,2.39-2.391,2.39l0,0c-1.319,0-2.39-1.07-2.39-2.39v-8.167
								c0-1.321,1.07-2.39,2.39-2.39l0,0c1.32,0,2.391,1.069,2.391,2.39V216.998z"/>
							<path style="fill:#303D4E;" d="M268.436,216.998c0,1.32-1.07,2.39-2.39,2.39l0,0c-1.32,0-2.391-1.07-2.391-2.39v-8.167
								c0-1.321,1.07-2.39,2.391-2.39l0,0c1.319,0,2.39,1.069,2.39,2.39V216.998z"/>
						</g>
						<g>
							<g>
								<rect x="232.683" y="226.708" style="fill:#303D4E;" width="6.374" height="6.374"/>
								<polygon style="fill:#17AD9B;" points="240.184,224.516 235.735,229.565 234.852,227.376 232.451,227.376 235.718,232.576 
									243.539,224.516 								"/>
							</g>
							<rect x="242.743" y="229.43" style="fill:#E6E7E8;" width="23.104" height="1.66"/>
						</g>
						<g>
							<g>
								<rect x="232.683" y="237.065" style="fill:#303D4E;" width="6.374" height="6.375"/>
								<polygon style="fill:#17AD9B;" points="240.184,234.873 235.735,239.923 234.852,237.733 232.451,237.733 235.718,242.933 
									243.539,234.873 								"/>
							</g>
							<rect x="242.743" y="239.788" style="fill:#E6E7E8;" width="23.104" height="1.66"/>
						</g>
						<g>
							<g>
								<rect x="232.683" y="247.422" style="fill:#303D4E;" width="6.374" height="6.375"/>
							</g>
							<rect x="242.743" y="250.145" style="fill:#E6E7E8;" width="23.104" height="1.659"/>
						</g>
					</g>
				</g>
				<path style="opacity:0.2;fill:#FFFFFF;" d="M249.688,184.318c-29.526,0-53.461,23.936-53.461,53.461
					c0,15.004,6.189,28.556,16.144,38.266l75.583-75.583C278.245,190.508,264.692,184.318,249.688,184.318z"/>
			</g>
		</g>
		<g>
			<g>
				<g>
					
						<ellipse transform="matrix(0.0263 -0.9997 0.9997 0.0263 -132.7728 616.3597)" style="opacity:0.1;fill:#29AAE3;" cx="250.004" cy="376.335" rx="80.982" ry="80.983"/>
					<path style="opacity:0.3;fill:#29AAE3;" d="M312.481,376.335c0,34.506-27.972,62.477-62.477,62.477
						c-34.504,0-62.477-27.971-62.477-62.477c0-34.504,27.973-62.478,62.477-62.478C284.51,313.857,312.481,341.831,312.481,376.335
						z"/>
				</g>
			</g>
			<g>
				<g>
					<path style="fill:#29AAE3;" d="M304.573,376.651c0,29.526-23.936,53.461-53.462,53.461c-29.525,0-53.461-23.935-53.461-53.461
						c0-29.526,23.936-53.461,53.461-53.461C280.638,323.19,304.573,347.125,304.573,376.651z"/>
					<g>
						<path style="fill:#303D4E;" d="M273.182,397.321c1.224,1.503,0.999,3.713-0.503,4.938l0,0c-1.502,1.224-3.711,1-4.937-0.503
							l-7.908-9.7c-1.224-1.501-1-3.712,0.503-4.937l0,0c1.502-1.224,3.712-0.998,4.936,0.503L273.182,397.321z"/>
						<path style="fill:#303D4E;" d="M229.099,397.321c-1.224,1.503-0.999,3.713,0.503,4.938l0,0c1.501,1.224,3.711,1,4.936-0.503
							l7.908-9.7c1.225-1.501,0.999-3.712-0.503-4.937l0,0c-1.502-1.224-3.712-0.998-4.936,0.503L229.099,397.321z"/>
						<g>
							<g>
								<polygon style="fill:#303D4E;" points="259.55,339.886 242.628,339.886 242.628,345.724 247.023,345.724 247.023,350.512 
									255.156,350.512 255.156,345.724 259.55,345.724 								"/>
								<path style="fill:#303D4E;" d="M278.396,376.288c0,15.067-12.216,27.283-27.285,27.283
									c-15.068,0-27.284-12.216-27.284-27.283c0-15.069,12.216-27.284,27.284-27.284
									C266.18,349.004,278.396,361.219,278.396,376.288z"/>
								<path style="fill:#17AD9B;" d="M251.11,376.288v-18.175c-10.037,0-18.173,8.137-18.173,18.175
									c0,10.036,8.137,18.174,18.173,18.174c10.038,0,18.175-8.138,18.175-18.174H251.11z"/>
								<path style="fill:#FFFFFF;" d="M269.285,376.288H251.11l16.166,8.279C268.553,382.082,269.285,379.272,269.285,376.288z"/>
								<g>
									<rect x="250.061" y="351.19" style="fill:#F7941E;" width="2.012" height="3.324"/>
									
										<rect x="229.826" y="362.924" transform="matrix(0.5002 -0.8659 0.8659 0.5002 -200.329 382.103)" style="fill:#F7941E;" width="2.011" height="3.324"/>
									
										<rect x="229.214" y="386.972" transform="matrix(0.866 -0.5 0.5 0.866 -163.0611 167.424)" style="fill:#F7941E;" width="3.324" height="2.012"/>
									<rect x="250.15" y="397.973" style="fill:#F7941E;" width="2.012" height="3.324"/>
									
										<rect x="270.386" y="386.239" transform="matrix(0.5 -0.866 0.866 0.5 -200.2375 428.9746)" style="fill:#F7941E;" width="2.011" height="3.325"/>
									
										<rect x="269.686" y="363.504" transform="matrix(0.8657 -0.5006 0.5006 0.8657 -146.0185 184.7815)" style="fill:#F7941E;" width="3.323" height="2.011"/>
								</g>
							</g>
						</g>
					</g>
				</g>
				<path style="opacity:0.2;fill:#FFFFFF;" d="M251.111,323.19c-29.525,0-53.461,23.935-53.461,53.461
					c0,14.602,5.86,27.83,15.349,37.479l75.591-75.591C278.942,329.051,265.714,323.19,251.111,323.19z"/>
			</g>
		</g>
	</g>
	<g>
		<g>
			
				<ellipse transform="matrix(0.4927 -0.8702 0.8702 0.4927 -238.6678 250.2689)" style="opacity:0.1;fill:#303D4E;" cx="95.315" cy="329.834" rx="80.983" ry="80.983"/>
			<path style="opacity:0.3;fill:#303D4E;" d="M157.792,329.834c0,34.506-27.972,62.476-62.477,62.476
				c-34.505,0-62.477-27.971-62.477-62.476c0-34.504,27.972-62.478,62.477-62.478C129.821,267.356,157.792,295.33,157.792,329.834z"
				/>
		</g>
		<g>
			<g>
				<path style="fill:#303D4E;" d="M149.251,329.2c0,29.527-23.936,53.462-53.462,53.462c-29.526,0-53.461-23.935-53.461-53.462
					c0-29.525,23.936-53.46,53.461-53.46C125.315,275.74,149.251,299.675,149.251,329.2z"/>
				<g>
					<g>
						<path style="fill:#F7941E;" d="M135.014,322.519c0,12.649-10.254,22.902-22.902,22.902c-12.648,0-22.902-10.253-22.902-22.902
							c0-12.649,10.253-22.902,22.902-22.902C124.76,299.616,135.014,309.869,135.014,322.519z"/>
						<path style="opacity:0.2;fill:#FFFFFF;" d="M130.128,322.519c0,9.95-8.067,18.017-18.017,18.017s-18.016-8.066-18.016-18.017
							c0-9.951,8.066-18.017,18.016-18.017S130.128,312.567,130.128,322.519z"/>
						
							<text transform="matrix(1 0 0 1 106.1304 329.0977)" style="fill:#303D4E; font-family:'Montserrat-Bold'; font-size:19.2303px;">$</text>
					</g>
					<g>
						<path style="fill:#F7941E;" d="M122.614,346.75c0,12.649-10.254,22.902-22.902,22.902c-12.648,0-22.903-10.253-22.903-22.902
							s10.254-22.902,22.903-22.902C112.36,323.848,122.614,334.101,122.614,346.75z"/>
						<path style="opacity:0.2;fill:#FFFFFF;" d="M117.728,346.75c0,9.95-8.066,18.016-18.016,18.016
							c-9.95,0-18.017-8.065-18.017-18.016c0-9.951,8.067-18.018,18.017-18.018C109.662,328.732,117.728,336.799,117.728,346.75z"/>
						
							<text transform="matrix(1 0 0 1 93.73 353.3291)" style="fill:#303D4E; font-family:'Montserrat-Bold'; font-size:19.2303px;">$</text>
					</g>
					<g>
						<circle style="fill:#F7941E;" cx="85.034" cy="326.315" r="28.47"/>
						<path style="opacity:0.2;fill:#FFFFFF;" d="M107.43,326.315c0,12.369-10.028,22.397-22.396,22.397
							c-12.369,0-22.396-10.028-22.396-22.397c0-12.369,10.027-22.397,22.396-22.397C97.402,303.918,107.43,313.945,107.43,326.315z
							"/>
						
							<text transform="matrix(1 0 0 1 77.5962 334.4941)" style="fill:#303D4E; font-family:'Montserrat-Bold'; font-size:23.9052px;">$</text>
					</g>
				</g>
			</g>
			<path style="opacity:0.2;fill:#FFFFFF;" d="M95.79,275.74c-29.526,0-53.461,23.935-53.461,53.46
				c0,15.005,6.19,28.557,16.144,38.267l75.584-75.584C124.346,281.929,110.794,275.74,95.79,275.74z"/>
		</g>
	</g>
</g>
<g id="DESIGNED_BY_FREEPIK" style="opacity:0.5;">
	<g>
		<g>
			<path style="fill:#414042;" d="M180.308,483.978v-0.16c-0.218,0.249-0.432,0.452-0.644,0.607
				c-0.212,0.157-0.441,0.276-0.689,0.357c-0.247,0.082-0.517,0.122-0.81,0.122c-0.388,0-0.747-0.082-1.078-0.246
				c-0.33-0.164-0.616-0.398-0.857-0.703c-0.242-0.305-0.425-0.662-0.549-1.074c-0.125-0.412-0.187-0.857-0.187-1.336
				c0-1.013,0.248-1.804,0.742-2.369c0.495-0.565,1.146-0.849,1.953-0.849c0.467,0,0.861,0.081,1.181,0.24
				c0.321,0.16,0.633,0.407,0.938,0.739v-2.393c0-0.332,0.066-0.583,0.199-0.754c0.132-0.17,0.321-0.255,0.566-0.255
				c0.246,0,0.434,0.078,0.567,0.234c0.133,0.157,0.199,0.387,0.199,0.691v7.147c0,0.309-0.07,0.54-0.213,0.694
				c-0.143,0.154-0.326,0.231-0.552,0.231c-0.222,0-0.404-0.08-0.549-0.24C180.38,484.502,180.308,484.274,180.308,483.978z
				 M177.12,481.598c0,0.438,0.068,0.813,0.205,1.121c0.137,0.309,0.323,0.542,0.561,0.697c0.237,0.157,0.497,0.235,0.777,0.235
				c0.285,0,0.545-0.074,0.781-0.223c0.235-0.148,0.423-0.377,0.564-0.683c0.141-0.307,0.211-0.69,0.211-1.148
				c0-0.432-0.07-0.803-0.211-1.114c-0.141-0.31-0.33-0.548-0.57-0.713c-0.24-0.163-0.502-0.245-0.787-0.245
				c-0.296,0-0.562,0.085-0.795,0.252c-0.233,0.168-0.415,0.409-0.543,0.725C177.184,480.816,177.12,481.182,177.12,481.598z"/>
			<path style="fill:#414042;" d="M187.454,482.007h-3.169c0.004,0.368,0.078,0.692,0.223,0.974
				c0.144,0.281,0.337,0.493,0.576,0.635c0.239,0.144,0.504,0.214,0.792,0.214c0.194,0,0.371-0.022,0.531-0.067
				c0.161-0.047,0.315-0.117,0.466-0.215c0.15-0.096,0.288-0.2,0.415-0.311c0.126-0.111,0.29-0.262,0.492-0.451
				c0.083-0.071,0.202-0.107,0.357-0.107c0.166,0,0.3,0.047,0.403,0.138c0.103,0.091,0.155,0.219,0.155,0.386
				c0,0.147-0.058,0.316-0.172,0.513c-0.116,0.196-0.288,0.385-0.52,0.564c-0.232,0.18-0.522,0.329-0.873,0.448
				c-0.35,0.118-0.753,0.178-1.208,0.178c-1.041,0-1.85-0.297-2.428-0.891c-0.578-0.593-0.866-1.398-0.866-2.415
				c0-0.479,0.071-0.924,0.213-1.333c0.143-0.41,0.351-0.761,0.623-1.054c0.273-0.293,0.609-0.518,1.009-0.674
				c0.399-0.156,0.843-0.234,1.33-0.234c0.633,0,1.176,0.133,1.629,0.4c0.454,0.267,0.794,0.612,1.019,1.035
				c0.225,0.424,0.338,0.856,0.338,1.294c0,0.408-0.117,0.672-0.35,0.794C188.206,481.946,187.877,482.007,187.454,482.007z
				 M184.284,481.087h2.939c-0.039-0.555-0.189-0.969-0.448-1.244c-0.26-0.275-0.6-0.412-1.024-0.412
				c-0.404,0-0.735,0.139-0.994,0.418C184.497,480.127,184.34,480.541,184.284,481.087z"/>
			<path style="fill:#414042;" d="M194.838,482.784c0,0.447-0.108,0.83-0.327,1.148c-0.217,0.319-0.538,0.561-0.964,0.725
				c-0.425,0.164-0.943,0.246-1.552,0.246c-0.581,0-1.08-0.089-1.496-0.268c-0.415-0.178-0.722-0.4-0.919-0.667
				c-0.198-0.268-0.297-0.535-0.297-0.805c0-0.179,0.063-0.33,0.191-0.457c0.126-0.126,0.287-0.189,0.481-0.189
				c0.17,0,0.3,0.041,0.391,0.124c0.091,0.084,0.179,0.201,0.261,0.351c0.167,0.289,0.366,0.504,0.597,0.647
				c0.231,0.142,0.547,0.213,0.947,0.213c0.324,0,0.59-0.072,0.798-0.216c0.208-0.145,0.311-0.31,0.311-0.497
				c0-0.284-0.107-0.491-0.323-0.622c-0.216-0.131-0.571-0.256-1.065-0.375c-0.558-0.138-1.012-0.283-1.362-0.437
				c-0.351-0.151-0.63-0.353-0.84-0.602c-0.21-0.25-0.314-0.557-0.314-0.92c0-0.324,0.097-0.632,0.291-0.921
				c0.194-0.288,0.48-0.519,0.858-0.69c0.377-0.173,0.833-0.259,1.368-0.259c0.419,0,0.796,0.043,1.13,0.131
				c0.335,0.086,0.614,0.204,0.837,0.351c0.224,0.146,0.393,0.308,0.51,0.485c0.117,0.179,0.175,0.352,0.175,0.523
				c0,0.186-0.062,0.338-0.187,0.457c-0.124,0.118-0.301,0.178-0.531,0.178c-0.167,0-0.308-0.047-0.424-0.143
				c-0.117-0.095-0.25-0.237-0.401-0.427c-0.123-0.158-0.266-0.285-0.433-0.381c-0.166-0.095-0.392-0.142-0.677-0.142
				c-0.293,0-0.536,0.062-0.73,0.188c-0.193,0.124-0.29,0.278-0.29,0.465c0,0.171,0.071,0.31,0.213,0.419
				c0.143,0.108,0.335,0.199,0.576,0.27c0.242,0.071,0.573,0.158,0.997,0.261c0.502,0.124,0.913,0.271,1.232,0.44
				c0.318,0.17,0.559,0.371,0.725,0.603C194.756,482.224,194.838,482.487,194.838,482.784z"/>
			<path style="fill:#414042;" d="M196.494,477.56c-0.226,0-0.419-0.069-0.579-0.208c-0.16-0.138-0.241-0.334-0.241-0.588
				c0-0.229,0.083-0.418,0.247-0.566c0.164-0.149,0.355-0.223,0.573-0.223c0.21,0,0.396,0.066,0.558,0.201
				c0.163,0.136,0.244,0.331,0.244,0.588c0,0.25-0.08,0.444-0.238,0.585C196.899,477.49,196.711,477.56,196.494,477.56z
				 M197.295,479.234v4.684c0,0.324-0.077,0.57-0.232,0.736c-0.155,0.166-0.35,0.249-0.587,0.249c-0.238,0-0.431-0.085-0.579-0.255
				c-0.148-0.171-0.223-0.414-0.223-0.73v-4.637c0-0.319,0.074-0.562,0.223-0.724c0.148-0.162,0.341-0.243,0.579-0.243
				c0.237,0,0.433,0.081,0.587,0.243C197.218,478.72,197.295,478.946,197.295,479.234z"/>
			<path style="fill:#414042;" d="M204.395,479.502v4.707c0,0.538-0.058,1.001-0.173,1.39c-0.114,0.387-0.298,0.708-0.552,0.961
				c-0.253,0.253-0.585,0.441-0.994,0.563c-0.41,0.123-0.919,0.185-1.529,0.185c-0.558,0-1.057-0.078-1.496-0.234
				c-0.439-0.157-0.777-0.358-1.015-0.605c-0.237-0.247-0.356-0.502-0.356-0.763c0-0.198,0.067-0.359,0.203-0.483
				c0.134-0.125,0.297-0.188,0.486-0.188c0.237,0,0.445,0.104,0.623,0.314c0.086,0.107,0.177,0.215,0.27,0.324
				c0.093,0.108,0.197,0.201,0.309,0.279c0.113,0.076,0.249,0.134,0.406,0.171c0.159,0.037,0.341,0.057,0.546,0.057
				c0.419,0,0.745-0.058,0.977-0.175c0.231-0.117,0.394-0.28,0.487-0.49c0.093-0.209,0.147-0.434,0.163-0.674
				c0.016-0.239,0.027-0.624,0.035-1.155c-0.25,0.35-0.537,0.615-0.864,0.797c-0.326,0.182-0.715,0.273-1.166,0.273
				c-0.542,0-1.016-0.139-1.422-0.415c-0.406-0.277-0.717-0.665-0.935-1.164c-0.218-0.499-0.326-1.074-0.326-1.727
				c0-0.487,0.065-0.927,0.198-1.318c0.133-0.393,0.322-0.723,0.567-0.991c0.246-0.27,0.528-0.473,0.849-0.609
				c0.321-0.136,0.673-0.204,1.057-0.204c0.459,0,0.857,0.089,1.193,0.264c0.336,0.177,0.649,0.453,0.938,0.829v-0.221
				c0-0.28,0.069-0.498,0.208-0.652c0.139-0.154,0.317-0.231,0.535-0.231c0.313,0,0.52,0.102,0.623,0.306
				C204.343,478.823,204.395,479.118,204.395,479.502z M199.699,481.556c0,0.656,0.143,1.153,0.43,1.49
				c0.287,0.337,0.658,0.504,1.113,0.504c0.268,0,0.523-0.072,0.762-0.216c0.24-0.146,0.435-0.363,0.585-0.653
				c0.15-0.291,0.226-0.645,0.226-1.06c0-0.66-0.145-1.176-0.436-1.543c-0.291-0.368-0.674-0.553-1.149-0.553
				c-0.463,0-0.834,0.177-1.113,0.528C199.838,480.405,199.699,480.907,199.699,481.556z"/>
			<path style="fill:#414042;" d="M206.97,479.211v0.195c0.285-0.376,0.597-0.651,0.935-0.828c0.338-0.176,0.727-0.264,1.167-0.264
				c0.427,0,0.809,0.093,1.145,0.279c0.336,0.186,0.588,0.449,0.754,0.788c0.107,0.198,0.176,0.413,0.208,0.642
				c0.032,0.23,0.048,0.522,0.048,0.879v3.016c0,0.324-0.074,0.57-0.223,0.736c-0.148,0.166-0.341,0.249-0.579,0.249
				c-0.242,0-0.438-0.085-0.588-0.255c-0.15-0.171-0.225-0.414-0.225-0.73v-2.701c0-0.534-0.075-0.942-0.223-1.226
				c-0.148-0.282-0.444-0.425-0.888-0.425c-0.289,0-0.552,0.086-0.789,0.259c-0.237,0.172-0.412,0.409-0.522,0.709
				c-0.079,0.242-0.119,0.692-0.119,1.353v2.03c0,0.328-0.077,0.575-0.229,0.739c-0.152,0.164-0.349,0.246-0.59,0.246
				c-0.234,0-0.426-0.085-0.576-0.255c-0.15-0.171-0.226-0.414-0.226-0.73v-4.684c0-0.309,0.067-0.539,0.202-0.692
				c0.135-0.151,0.319-0.227,0.552-0.227c0.143,0,0.271,0.033,0.387,0.1c0.114,0.068,0.207,0.169,0.276,0.303
				C206.936,478.853,206.97,479.018,206.97,479.211z"/>
			<path style="fill:#414042;" d="M216.829,482.007h-3.17c0.004,0.368,0.078,0.692,0.223,0.974c0.144,0.281,0.336,0.493,0.576,0.635
				c0.239,0.144,0.503,0.214,0.792,0.214c0.194,0,0.371-0.022,0.532-0.067c0.16-0.047,0.315-0.117,0.466-0.215
				c0.15-0.096,0.288-0.2,0.416-0.311c0.126-0.111,0.29-0.262,0.492-0.451c0.083-0.071,0.202-0.107,0.356-0.107
				c0.167,0,0.301,0.047,0.404,0.138c0.103,0.091,0.154,0.219,0.154,0.386c0,0.147-0.057,0.316-0.172,0.513
				c-0.115,0.196-0.288,0.385-0.52,0.564c-0.231,0.18-0.522,0.329-0.872,0.448c-0.351,0.118-0.754,0.178-1.208,0.178
				c-1.041,0-1.85-0.297-2.429-0.891c-0.577-0.593-0.866-1.398-0.866-2.415c0-0.479,0.071-0.924,0.214-1.333
				c0.142-0.41,0.351-0.761,0.624-1.054c0.273-0.293,0.609-0.518,1.009-0.674c0.399-0.156,0.843-0.234,1.33-0.234
				c0.633,0,1.175,0.133,1.629,0.4c0.453,0.267,0.792,0.612,1.019,1.035c0.225,0.424,0.338,0.856,0.338,1.294
				c0,0.408-0.117,0.672-0.35,0.794C217.581,481.946,217.253,482.007,216.829,482.007z M213.659,481.087h2.939
				c-0.04-0.555-0.189-0.969-0.448-1.244c-0.259-0.275-0.6-0.412-1.023-0.412c-0.404,0-0.736,0.139-0.995,0.418
				C213.872,480.127,213.715,480.541,213.659,481.087z"/>
			<path style="fill:#414042;" d="M223.435,483.978v-0.16c-0.218,0.249-0.432,0.452-0.644,0.607
				c-0.211,0.157-0.441,0.276-0.689,0.357c-0.246,0.082-0.517,0.122-0.809,0.122c-0.389,0-0.748-0.082-1.078-0.246
				c-0.331-0.164-0.617-0.398-0.858-0.703c-0.242-0.305-0.425-0.662-0.549-1.074c-0.125-0.412-0.187-0.857-0.187-1.336
				c0-1.013,0.247-1.804,0.742-2.369c0.495-0.565,1.146-0.849,1.953-0.849c0.467,0,0.861,0.081,1.181,0.24
				c0.32,0.16,0.633,0.407,0.938,0.739v-2.393c0-0.332,0.066-0.583,0.199-0.754c0.132-0.17,0.322-0.255,0.567-0.255
				s0.434,0.078,0.567,0.234c0.132,0.157,0.199,0.387,0.199,0.691v7.147c0,0.309-0.071,0.54-0.214,0.694
				c-0.143,0.154-0.326,0.231-0.552,0.231c-0.221,0-0.404-0.08-0.549-0.24C223.507,484.502,223.435,484.274,223.435,483.978z
				 M220.248,481.598c0,0.438,0.067,0.813,0.204,1.121c0.137,0.309,0.324,0.542,0.562,0.697c0.237,0.157,0.497,0.235,0.777,0.235
				c0.285,0,0.545-0.074,0.78-0.223c0.236-0.148,0.424-0.377,0.564-0.683c0.141-0.307,0.211-0.69,0.211-1.148
				c0-0.432-0.07-0.803-0.211-1.114c-0.14-0.31-0.33-0.548-0.57-0.713c-0.24-0.163-0.501-0.245-0.787-0.245
				c-0.296,0-0.561,0.085-0.795,0.252c-0.233,0.168-0.414,0.409-0.543,0.725C220.311,480.816,220.248,481.182,220.248,481.598z"/>
			<path style="fill:#414042;" d="M230.059,476.83v2.476c0.304-0.316,0.615-0.56,0.932-0.728c0.317-0.168,0.709-0.252,1.176-0.252
				c0.538,0,1.01,0.128,1.416,0.382c0.405,0.257,0.72,0.627,0.943,1.111c0.224,0.484,0.336,1.06,0.336,1.725
				c0,0.491-0.063,0.94-0.187,1.351c-0.125,0.409-0.306,0.765-0.544,1.065c-0.238,0.301-0.525,0.534-0.863,0.698
				c-0.339,0.164-0.712,0.246-1.119,0.246c-0.25,0-0.484-0.029-0.704-0.089c-0.22-0.06-0.407-0.137-0.561-0.234
				c-0.154-0.097-0.286-0.196-0.395-0.3c-0.109-0.103-0.253-0.258-0.431-0.463v0.16c0,0.305-0.073,0.535-0.22,0.692
				c-0.146,0.156-0.332,0.233-0.558,0.233c-0.229,0-0.413-0.077-0.549-0.233c-0.137-0.157-0.205-0.388-0.205-0.692v-7.076
				c0-0.329,0.066-0.577,0.198-0.745c0.133-0.168,0.318-0.252,0.555-0.252c0.25,0,0.441,0.08,0.576,0.24
				C229.992,476.306,230.059,476.533,230.059,476.83z M230.136,481.645c0,0.646,0.148,1.141,0.442,1.486
				c0.294,0.347,0.682,0.521,1.16,0.521c0.408,0,0.759-0.177,1.054-0.531c0.295-0.354,0.442-0.862,0.442-1.522
				c0-0.428-0.061-0.797-0.184-1.104c-0.123-0.309-0.296-0.548-0.522-0.716c-0.226-0.167-0.489-0.252-0.79-0.252
				c-0.309,0-0.584,0.085-0.825,0.252c-0.241,0.168-0.431,0.412-0.57,0.73C230.206,480.825,230.136,481.205,230.136,481.645z"/>
			<path style="fill:#414042;" d="M236.962,485.105l0.148-0.362l-1.995-5.022c-0.122-0.288-0.184-0.498-0.184-0.629
				c0-0.139,0.036-0.267,0.107-0.386c0.071-0.118,0.169-0.214,0.293-0.284c0.125-0.072,0.255-0.107,0.389-0.107
				c0.233,0,0.409,0.074,0.529,0.223c0.119,0.148,0.223,0.36,0.314,0.638l1.371,3.989l1.3-3.71c0.103-0.3,0.195-0.536,0.279-0.707
				c0.083-0.17,0.171-0.285,0.264-0.344c0.093-0.059,0.225-0.089,0.395-0.089c0.124,0,0.241,0.032,0.354,0.098
				c0.113,0.065,0.2,0.153,0.261,0.265c0.061,0.11,0.093,0.227,0.093,0.35c-0.017,0.075-0.042,0.182-0.078,0.321
				c-0.036,0.138-0.079,0.279-0.13,0.421l-2.113,5.533c-0.183,0.486-0.36,0.867-0.535,1.145c-0.174,0.277-0.404,0.491-0.691,0.639
				c-0.287,0.148-0.674,0.223-1.161,0.223c-0.475,0-0.831-0.051-1.068-0.154c-0.238-0.103-0.356-0.291-0.356-0.564
				c0-0.186,0.056-0.329,0.169-0.43c0.112-0.101,0.28-0.152,0.501-0.152c0.087,0,0.172,0.013,0.255,0.037
				c0.103,0.022,0.192,0.035,0.267,0.035c0.186,0,0.332-0.027,0.439-0.084c0.106-0.055,0.203-0.15,0.288-0.288
				C236.753,485.571,236.852,485.37,236.962,485.105z"/>
		</g>
		<g>
			<path style="fill:#414042;" d="M260.44,478.454h0.386v-0.486c0-0.509,0.063-0.91,0.192-1.211
				c0.127-0.299,0.347-0.516,0.654-0.652c0.306-0.136,0.727-0.204,1.26-0.204c0.95,0,1.42,0.23,1.42,0.696
				c0,0.148-0.05,0.277-0.15,0.385c-0.096,0.105-0.214,0.159-0.349,0.159c-0.062,0-0.174-0.011-0.33-0.037
				c-0.148-0.02-0.282-0.034-0.389-0.034c-0.293,0-0.479,0.088-0.566,0.259c-0.079,0.173-0.122,0.418-0.122,0.74v0.386h0.395
				c0.62,0,0.926,0.185,0.926,0.56c0,0.262-0.08,0.431-0.246,0.502c-0.163,0.072-0.39,0.107-0.681,0.107h-0.395v4.294
				c0,0.319-0.075,0.563-0.23,0.73c-0.151,0.17-0.346,0.254-0.589,0.254c-0.23,0-0.419-0.084-0.574-0.254
				c-0.152-0.167-0.227-0.411-0.227-0.73v-4.294h-0.446c-0.243,0-0.426-0.053-0.558-0.164c-0.131-0.107-0.197-0.249-0.197-0.423
				C259.625,478.647,259.896,478.454,260.44,478.454"/>
			<path style="fill:#414042;" d="M265.745,482.564v1.354c0,0.327-0.083,0.575-0.234,0.737c-0.154,0.166-0.349,0.247-0.586,0.247
				c-0.238,0-0.43-0.082-0.579-0.25c-0.147-0.165-0.225-0.41-0.225-0.734v-4.514c0-0.728,0.262-1.094,0.788-1.094
				c0.271,0,0.464,0.085,0.583,0.256c0.118,0.171,0.184,0.421,0.198,0.755c0.192-0.334,0.39-0.584,0.593-0.755
				c0.208-0.171,0.477-0.256,0.818-0.256c0.343,0,0.67,0.085,0.991,0.256c0.322,0.171,0.482,0.397,0.482,0.678
				c0,0.196-0.069,0.362-0.204,0.488c-0.138,0.131-0.284,0.194-0.441,0.194c-0.063,0-0.207-0.039-0.433-0.112
				c-0.229-0.07-0.431-0.108-0.602-0.108c-0.237,0-0.433,0.064-0.582,0.186c-0.151,0.129-0.27,0.311-0.353,0.555
				c-0.081,0.247-0.137,0.541-0.17,0.878C265.759,481.664,265.745,482.077,265.745,482.564"/>
			<path style="fill:#414042;" d="M273.196,482.006h-3.171c0.005,0.367,0.078,0.693,0.222,0.974
				c0.147,0.279,0.337,0.491,0.578,0.636c0.241,0.142,0.503,0.212,0.793,0.212c0.194,0,0.371-0.02,0.531-0.069
				c0.159-0.043,0.316-0.116,0.465-0.213c0.151-0.096,0.288-0.199,0.415-0.313c0.126-0.109,0.292-0.26,0.494-0.449
				c0.084-0.071,0.203-0.108,0.355-0.108c0.168,0,0.301,0.046,0.406,0.139c0.104,0.092,0.152,0.219,0.152,0.385
				c0,0.147-0.056,0.318-0.167,0.513c-0.117,0.198-0.289,0.385-0.522,0.566c-0.234,0.178-0.524,0.329-0.874,0.446
				c-0.35,0.119-0.753,0.179-1.207,0.179c-1.044,0-1.853-0.296-2.429-0.889c-0.578-0.596-0.87-1.401-0.87-2.418
				c0-0.479,0.073-0.924,0.217-1.334c0.14-0.411,0.348-0.76,0.624-1.055c0.273-0.294,0.607-0.517,1.008-0.674
				c0.398-0.155,0.842-0.233,1.33-0.233c0.632,0,1.175,0.133,1.629,0.403c0.453,0.264,0.796,0.61,1.018,1.034
				c0.226,0.425,0.339,0.854,0.339,1.296c0,0.405-0.118,0.669-0.351,0.791C273.947,481.945,273.619,482.006,273.196,482.006
				 M270.024,481.084h2.938c-0.039-0.553-0.186-0.969-0.446-1.241c-0.261-0.277-0.6-0.413-1.025-0.413
				c-0.404,0-0.736,0.138-0.995,0.418C270.237,480.127,270.079,480.538,270.024,481.084"/>
			<path style="fill:#414042;" d="M279.938,482.006h-3.17c0.003,0.367,0.078,0.693,0.221,0.974c0.145,0.279,0.337,0.491,0.576,0.636
				c0.239,0.142,0.503,0.212,0.795,0.212c0.192,0,0.37-0.02,0.528-0.069c0.162-0.043,0.316-0.116,0.469-0.213
				c0.151-0.096,0.288-0.199,0.415-0.313c0.124-0.109,0.29-0.26,0.493-0.449c0.084-0.071,0.204-0.108,0.355-0.108
				c0.168,0,0.302,0.046,0.407,0.139c0.103,0.092,0.15,0.219,0.15,0.385c0,0.147-0.054,0.318-0.171,0.513
				c-0.11,0.198-0.284,0.385-0.518,0.566c-0.232,0.178-0.525,0.329-0.873,0.446c-0.348,0.119-0.755,0.179-1.209,0.179
				c-1.042,0-1.849-0.296-2.429-0.889c-0.577-0.596-0.868-1.401-0.868-2.418c0-0.479,0.072-0.924,0.217-1.334
				c0.142-0.411,0.349-0.76,0.623-1.055c0.272-0.294,0.608-0.517,1.009-0.674c0.398-0.155,0.844-0.233,1.331-0.233
				c0.63,0,1.174,0.133,1.633,0.403c0.45,0.264,0.791,0.61,1.013,1.034c0.225,0.425,0.34,0.854,0.34,1.296
				c0,0.405-0.12,0.669-0.35,0.791C280.688,481.945,280.36,482.006,279.938,482.006 M276.767,481.084h2.938
				c-0.04-0.553-0.19-0.969-0.447-1.241c-0.263-0.277-0.601-0.413-1.026-0.413c-0.404,0-0.735,0.138-0.996,0.418
				C276.978,480.127,276.819,480.538,276.767,481.084"/>
			<path style="fill:#414042;" d="M283.487,479.223v0.194c0.304-0.375,0.622-0.651,0.953-0.827c0.324-0.178,0.699-0.268,1.114-0.268
				c0.497,0,0.96,0.13,1.379,0.386c0.419,0.259,0.749,0.635,0.993,1.13c0.243,0.496,0.366,1.08,0.366,1.758
				c0,0.498-0.07,0.957-0.21,1.376c-0.14,0.418-0.336,0.767-0.581,1.05c-0.246,0.281-0.535,0.501-0.869,0.653
				c-0.339,0.151-0.694,0.228-1.08,0.228c-0.461,0-0.853-0.093-1.166-0.279c-0.314-0.183-0.614-0.459-0.901-0.816v2.433
				c0,0.71-0.26,1.069-0.777,1.069c-0.307,0-0.505-0.092-0.607-0.275c-0.095-0.186-0.146-0.452-0.146-0.807v-6.996
				c0-0.31,0.066-0.537,0.2-0.691c0.134-0.15,0.32-0.229,0.553-0.229c0.23,0,0.416,0.079,0.56,0.234
				C283.417,478.703,283.487,478.926,283.487,479.223 M286.665,481.577c0-0.428-0.066-0.796-0.197-1.102
				c-0.13-0.308-0.312-0.542-0.541-0.705c-0.229-0.164-0.489-0.247-0.77-0.247c-0.446,0-0.824,0.178-1.13,0.527
				c-0.308,0.353-0.462,0.872-0.462,1.558c0,0.642,0.152,1.147,0.459,1.504c0.305,0.358,0.679,0.537,1.133,0.537
				c0.268,0,0.519-0.079,0.749-0.232c0.232-0.158,0.415-0.393,0.552-0.705C286.595,482.398,286.665,482.021,286.665,481.577"/>
			<path style="fill:#414042;" d="M289.925,477.557c-0.227,0-0.418-0.071-0.577-0.209c-0.162-0.14-0.242-0.333-0.242-0.586
				c0-0.229,0.082-0.419,0.247-0.568c0.164-0.146,0.354-0.223,0.571-0.223c0.212,0,0.397,0.066,0.559,0.2
				c0.162,0.137,0.244,0.334,0.244,0.591c0,0.25-0.08,0.444-0.236,0.585C290.332,477.485,290.145,477.557,289.925,477.557
				 M290.728,479.23v4.689c0,0.322-0.078,0.567-0.231,0.732c-0.156,0.168-0.35,0.25-0.588,0.25c-0.238,0-0.428-0.084-0.58-0.254
				c-0.146-0.173-0.222-0.416-0.222-0.729v-4.643c0-0.318,0.076-0.56,0.222-0.722c0.152-0.165,0.342-0.245,0.58-0.245
				c0.238,0,0.432,0.08,0.588,0.245C290.65,478.718,290.728,478.944,290.728,479.23"/>
			<path style="fill:#414042;" d="M295.952,484.162l-1.428-2.354l-0.88,0.83v1.291c0,0.313-0.083,0.552-0.248,0.719
				c-0.16,0.17-0.354,0.254-0.566,0.254c-0.249,0-0.447-0.082-0.588-0.25c-0.142-0.165-0.214-0.41-0.214-0.734v-6.914
				c0-0.358,0.071-0.632,0.207-0.821c0.139-0.19,0.341-0.282,0.596-0.282c0.249,0,0.446,0.085,0.593,0.257
				c0.146,0.169,0.221,0.421,0.221,0.751v3.934l1.822-1.914c0.227-0.235,0.396-0.4,0.517-0.486c0.119-0.087,0.262-0.131,0.431-0.131
				c0.204,0,0.371,0.066,0.509,0.193c0.132,0.129,0.2,0.291,0.2,0.483c0,0.236-0.221,0.556-0.659,0.951l-0.86,0.789l1.662,2.614
				c0.121,0.195,0.212,0.34,0.265,0.441c0.052,0.099,0.081,0.199,0.081,0.288c0,0.259-0.071,0.459-0.213,0.61
				c-0.141,0.147-0.327,0.221-0.554,0.221c-0.198,0-0.352-0.051-0.458-0.16C296.282,484.634,296.133,484.44,295.952,484.162"/>
			<path style="fill:#414042;" d="M299.475,484.902c-0.245,0-0.455-0.079-0.634-0.238c-0.178-0.155-0.268-0.378-0.268-0.665
				c0-0.241,0.086-0.449,0.256-0.622c0.172-0.175,0.38-0.262,0.63-0.262c0.248,0,0.46,0.087,0.639,0.258
				c0.175,0.172,0.264,0.382,0.264,0.626c0,0.282-0.089,0.505-0.264,0.662C299.919,484.823,299.711,484.902,299.475,484.902"/>
			<path style="fill:#414042;" d="M307.536,482.896c0,0.201-0.061,0.418-0.182,0.646c-0.12,0.231-0.305,0.449-0.554,0.656
				c-0.247,0.208-0.557,0.377-0.934,0.503c-0.376,0.126-0.8,0.191-1.269,0.191c-1.004,0-1.787-0.294-2.349-0.876
				c-0.56-0.585-0.841-1.368-0.841-2.35c0-0.667,0.128-1.254,0.387-1.766c0.254-0.509,0.628-0.904,1.113-1.184
				c0.487-0.279,1.072-0.418,1.746-0.418c0.421,0,0.805,0.061,1.158,0.184c0.351,0.122,0.646,0.282,0.891,0.475
				c0.242,0.196,0.429,0.402,0.556,0.62c0.129,0.22,0.192,0.426,0.192,0.617c0,0.192-0.071,0.356-0.214,0.492
				c-0.147,0.134-0.322,0.202-0.524,0.202c-0.137,0-0.249-0.035-0.338-0.103c-0.09-0.07-0.19-0.182-0.299-0.339
				c-0.198-0.299-0.404-0.526-0.623-0.675c-0.214-0.151-0.487-0.227-0.821-0.227c-0.476,0-0.865,0.186-1.159,0.561
				c-0.292,0.372-0.439,0.888-0.439,1.534c0,0.305,0.039,0.587,0.114,0.842c0.073,0.255,0.182,0.473,0.325,0.652
				c0.144,0.18,0.315,0.315,0.517,0.409c0.203,0.096,0.425,0.141,0.665,0.141c0.326,0,0.604-0.075,0.835-0.225
				c0.235-0.151,0.439-0.38,0.617-0.689c0.099-0.182,0.204-0.323,0.318-0.428c0.114-0.102,0.256-0.155,0.422-0.155
				c0.198,0,0.363,0.077,0.491,0.227C307.469,482.565,307.536,482.727,307.536,482.896"/>
			<path style="fill:#414042;" d="M314.53,481.608c0,0.48-0.076,0.928-0.222,1.336c-0.154,0.408-0.37,0.759-0.656,1.05
				c-0.285,0.293-0.626,0.518-1.02,0.675c-0.4,0.154-0.844,0.234-1.337,0.234c-0.491,0-0.933-0.08-1.326-0.239
				c-0.389-0.155-0.731-0.384-1.016-0.676c-0.288-0.298-0.505-0.647-0.657-1.049c-0.144-0.401-0.219-0.846-0.219-1.331
				c0-0.491,0.078-0.941,0.224-1.35c0.151-0.408,0.368-0.757,0.649-1.045c0.282-0.289,0.621-0.511,1.019-0.669
				c0.402-0.155,0.844-0.234,1.326-0.234c0.49,0,0.937,0.079,1.337,0.239c0.398,0.156,0.739,0.384,1.027,0.674
				c0.286,0.297,0.501,0.644,0.65,1.045C314.455,480.676,314.53,481.119,314.53,481.608 M312.903,481.608
				c0-0.662-0.147-1.176-0.436-1.543c-0.289-0.373-0.681-0.555-1.171-0.555c-0.317,0-0.597,0.082-0.839,0.246
				c-0.242,0.163-0.426,0.405-0.556,0.727s-0.197,0.696-0.197,1.125c0,0.424,0.064,0.792,0.193,1.108
				c0.13,0.319,0.314,0.561,0.554,0.729c0.241,0.167,0.522,0.253,0.845,0.253c0.49,0,0.882-0.186,1.171-0.558
				C312.756,482.772,312.903,482.259,312.903,481.608"/>
			<path style="fill:#414042;" d="M320.712,481.728v2.153c0,0.342-0.075,0.595-0.231,0.768c-0.156,0.17-0.357,0.255-0.611,0.255
				c-0.246,0-0.446-0.085-0.595-0.255c-0.154-0.173-0.232-0.426-0.232-0.768V481.3c0-0.409-0.013-0.727-0.04-0.953
				c-0.029-0.221-0.105-0.41-0.227-0.552c-0.123-0.147-0.318-0.22-0.582-0.22c-0.532,0-0.879,0.182-1.048,0.551
				c-0.167,0.359-0.254,0.883-0.254,1.566v2.188c0,0.337-0.077,0.592-0.226,0.765c-0.156,0.171-0.354,0.258-0.603,0.258
				c-0.247,0-0.448-0.087-0.604-0.258c-0.158-0.173-0.235-0.428-0.235-0.765v-4.637c0-0.306,0.07-0.538,0.21-0.694
				c0.144-0.16,0.329-0.239,0.556-0.239c0.223,0,0.407,0.077,0.557,0.223c0.148,0.149,0.222,0.354,0.222,0.615v0.153
				c0.283-0.335,0.584-0.582,0.903-0.738c0.323-0.162,0.676-0.241,1.07-0.241c0.407,0,0.757,0.082,1.049,0.244
				c0.293,0.163,0.533,0.409,0.725,0.735c0.274-0.33,0.568-0.577,0.881-0.738c0.313-0.16,0.658-0.241,1.039-0.241
				c0.441,0,0.826,0.09,1.146,0.263c0.318,0.174,0.558,0.424,0.717,0.746c0.138,0.296,0.207,0.757,0.207,1.386v3.164
				c0,0.342-0.076,0.595-0.229,0.768c-0.154,0.17-0.359,0.255-0.612,0.255c-0.247,0-0.446-0.087-0.603-0.258
				c-0.156-0.173-0.235-0.428-0.235-0.765v-2.726c0-0.35-0.015-0.627-0.043-0.836c-0.029-0.211-0.11-0.388-0.239-0.529
				c-0.132-0.143-0.332-0.215-0.596-0.215c-0.213,0-0.416,0.066-0.608,0.192c-0.192,0.124-0.342,0.298-0.451,0.508
				C320.774,480.549,320.712,481.033,320.712,481.728"/>
		</g>
		<g>
			<path style="fill:#414042;" d="M245.272,481.216c-0.002-0.003-0.002-0.006-0.002-0.011
				C245.27,481.21,245.27,481.213,245.272,481.216z"/>
			<path style="fill:#414042;" d="M245.354,481.733c0.001,0,0.001,0,0.002,0c-0.031-0.147-0.055-0.294-0.074-0.439
				C245.3,481.44,245.324,481.588,245.354,481.733z"/>
			<path style="fill:#414042;" d="M245.89,483.237c-0.003-0.006-0.007-0.013-0.011-0.021
				C245.883,483.225,245.887,483.231,245.89,483.237z"/>
			<path style="fill:#414042;" d="M245.839,483.138c-0.014-0.027-0.027-0.057-0.041-0.084
				C245.811,483.083,245.825,483.11,245.839,483.138z"/>
			<path style="fill:#414042;" d="M245.504,482.314c0.08,0.25,0.175,0.492,0.286,0.724c-0.113-0.236-0.206-0.48-0.283-0.724
				C245.506,482.314,245.505,482.314,245.504,482.314z"/>
			<path style="fill:#414042;" d="M251.545,475.005c0.313,0,0.544,0.025,0.809,0.07l0.075-0.477c0,0-0.732-0.226-1.694-0.147
				l-0.076-0.26c0.299-0.063,0.523-0.329,0.523-0.647c0-0.363-0.296-0.658-0.661-0.658c-0.364,0-0.66,0.295-0.66,0.658
				c0,0.317,0.224,0.584,0.522,0.647l0.083,0.289c-1.021,0.141-1.834,0.539-1.834,0.539l0.144,0.44
				c0.618-0.205,1.154-0.33,1.64-0.383C250.895,475.027,251.253,475.005,251.545,475.005z"/>
			<path style="fill:#414042;" d="M245.878,477.417l0.004-0.005c0.024-0.031,0.047-0.061,0.071-0.089l-0.196-0.142l-0.305-0.223
				c-0.018,0.024-0.497,0.465-0.876,1.28c-0.016-0.025-0.035-0.051-0.056-0.075c-0.114-0.123-0.272-0.187-0.474-0.184
				c-0.002,0-0.006,0-0.009,0c-0.125,0-0.21-0.041-0.267-0.092c0.056-0.071,0.089-0.16,0.089-0.258c0-0.23-0.188-0.419-0.419-0.419
				c-0.23,0-0.417,0.188-0.417,0.419c0,0.231,0.188,0.418,0.417,0.418c0.037,0,0.071-0.007,0.104-0.013
				c0.103,0.113,0.266,0.213,0.505,0.208c0.123-0.001,0.213,0.031,0.273,0.098c0.069,0.075,0.093,0.185,0.1,0.267
				c0,0.002,0,0.004-0.002,0.004c-0.272,0.743-0.194,1.668-0.194,1.668l0.66,0.026c0.014-0.337,0.062-0.927,0.232-1.394
				C245.449,478.007,245.861,477.44,245.878,477.417z"/>
			<path style="fill:#414042;" d="M257.295,475.558c-0.23,0-0.418,0.187-0.418,0.418c0,0.036,0.005,0.07,0.015,0.104
				c-0.115,0.103-0.214,0.268-0.211,0.507c0.002,0.123-0.03,0.212-0.096,0.272c-0.053,0.047-0.12,0.072-0.185,0.088
				c-0.492-0.689-1.097-1.109-1.097-1.109l-0.475,0.508c0.358,0.326,0.725,0.734,1.081,1.244c0.246,0.353,0.499,0.807,0.71,1.259
				l0.64-0.304c0,0-0.293-0.722-0.704-1.369c0.071-0.025,0.143-0.064,0.207-0.12c0.125-0.113,0.187-0.273,0.183-0.474
				c-0.001-0.131,0.042-0.219,0.093-0.276c0.072,0.055,0.161,0.089,0.258,0.089c0.232,0,0.419-0.188,0.419-0.418
				C257.713,475.744,257.527,475.558,257.295,475.558z"/>
			<path style="fill:#414042;" d="M255.634,481.309c-0.881,0.43-2.331,0.997-4.238,1.263c-0.749,0.104-1.475,0.143-2.143,0.143
				c-0.869,0-1.638-0.065-2.227-0.14c-0.672-0.085-1.198-0.188-1.52-0.261c0.077,0.244,0.17,0.487,0.283,0.724
				c0.002,0.006,0.005,0.013,0.008,0.017c0.014,0.027,0.027,0.057,0.041,0.084c0.014,0.027,0.027,0.055,0.04,0.079
				c0.004,0.008,0.007,0.015,0.011,0.021c0.189,0.357,0.416,0.685,0.675,0.969c0.9,0.984,1.817,1.14,1.826,1.142l0.014,0.001
				l0.014,0.005c0.008,0.003,0.821,0.266,2.057,0.266c1.216,0,2.409-0.245,3.546-0.73c0.842-0.431,1.639-1.085,2.034-1.668
				c0.306-0.452,0.526-0.934,0.656-1.434c0.07-0.267,0.124-0.692,0.092-1.142C256.557,480.814,256.165,481.051,255.634,481.309z"/>
			<path style="fill:#414042;" d="M246.161,477.626c-0.025,0.037-0.408,0.578-0.709,1.408c-0.226,0.621-0.216,1.526-0.216,1.537
				v0.002c0,0.212,0.012,0.423,0.035,0.632c0,0.005,0,0.008,0.002,0.011c0.002,0.026,0.007,0.053,0.009,0.079
				c0.019,0.145,0.043,0.291,0.074,0.439c0.438,0.111,3.049,0.721,5.968,0.315c1.829-0.255,3.218-0.796,4.062-1.204
				c0.701-0.341,1.151-0.648,1.325-0.775c-0.173-0.643-0.651-1.65-1.089-2.279c-1.253-1.79-2.605-2.25-3.298-2.364
				c-0.265-0.043-0.477-0.068-0.777-0.068c-0.28,0-0.626,0.023-1.089,0.071c-0.465,0.049-0.982,0.171-1.583,0.372
				c-0.843,0.282-1.605,0.725-2.205,1.28l-0.02,0.02C246.56,477.182,246.374,477.354,246.161,477.626z M253.829,477.209
				c0.601,0,1.09,0.488,1.09,1.089c0,0.602-0.489,1.091-1.09,1.091c-0.601,0-1.089-0.489-1.089-1.091
				C252.74,477.697,253.228,477.209,253.829,477.209z M248.678,477.165c0.973,0,1.761,0.789,1.761,1.761
				c0,0.973-0.788,1.76-1.761,1.76c-0.972,0-1.76-0.787-1.76-1.76C246.919,477.954,247.706,477.165,248.678,477.165z"/>
		</g>
	</g>
</g>
</svg>
